<?xml version="1.0" encoding="UTF-8"?>
<svg version="1.1" xmlns="http://www.w3.org/2000/svg" width="1000" height="1000">
<path d="M0 0 C0.91090779 -0.00145344 1.82181557 -0.00290688 2.76032662 -0.00440437 C5.84097676 -0.00808066 8.92157793 -0.00457041 12.00222778 -0.0011425 C14.22182173 -0.00229368 16.44141548 -0.00388117 18.66100883 -0.00586975 C24.78249078 -0.01006357 30.90395724 -0.00797213 37.02543926 -0.00488353 C42.94214644 -0.00286108 48.85885026 -0.00551417 54.77555698 -0.00803089 C67.62878156 -0.01330436 80.48200118 -0.01283717 93.33522624 -0.00995198 C104.58309366 -0.00743945 115.83095926 -0.00677831 127.0788269 -0.00797462 C127.82403988 -0.00805101 128.56925285 -0.00812739 129.33704804 -0.00820609 C132.36187803 -0.00851742 135.38670801 -0.00883582 138.411538 -0.00916586 C166.80445958 -0.01222696 195.197378 -0.00944807 223.5902991 -0.00406896 C248.83259083 0.00067687 274.07487751 0.00025226 299.31716919 -0.00452995 C327.65714915 -0.00988104 355.99712631 -0.0120099 384.3371067 -0.00891769 C387.35652288 -0.00859696 390.37593905 -0.00828412 393.39535522 -0.00797462 C394.51059501 -0.00785601 394.51059501 -0.00785601 395.64836489 -0.007735 C406.89097409 -0.00659606 418.13358127 -0.00793052 429.37619019 -0.01045418 C442.15562035 -0.01330845 454.93504476 -0.01260928 467.7144742 -0.00717343 C474.24027883 -0.00453724 480.76607319 -0.00352998 487.29187775 -0.00682259 C493.25768565 -0.00978722 499.22347371 -0.0081899 505.18927979 -0.00284503 C507.35544701 -0.00172157 509.52161588 -0.00231048 511.68778205 -0.00472082 C514.61660641 -0.00773153 517.54536148 -0.00467321 520.47418213 0 C521.32858139 -0.00234117 522.18298066 -0.00468233 523.06327081 -0.00709444 C526.37725256 0.00358123 529.07075585 0.07039607 532.23709106 1.12584114 C532.23709106 1.78584114 532.23709106 2.44584114 532.23709106 3.12584114 C533.37404419 3.11423958 534.51099731 3.10263802 535.68240356 3.09068489 C554.88504671 2.95502879 554.88504671 2.95502879 564.23709106 4.12584114 C564.56709106 4.45584114 564.89709106 4.78584114 565.23709106 5.12584114 C566.64830008 5.35155298 568.06885149 5.51972463 569.49099731 5.66099739 C570.77200317 5.79151497 570.77200317 5.79151497 572.07888794 5.92466927 C573.42563599 6.05518684 573.42563599 6.05518684 574.79959106 6.18834114 C575.70129028 6.27922005 576.6029895 6.37009895 577.53201294 6.46373177 C579.7666754 6.68838037 582.00166945 6.90889883 584.23709106 7.12584114 C584.23709106 8.11584114 584.23709106 9.10584114 584.23709106 10.12584114 C591.16709106 10.62084114 591.16709106 10.62084114 598.23709106 11.12584114 C598.23709106 11.78584114 598.23709106 12.44584114 598.23709106 13.12584114 C602.19709106 13.45584114 606.15709106 13.78584114 610.23709106 14.12584114 C610.23709106 15.11584114 610.23709106 16.10584114 610.23709106 17.12584114 C613.20709106 17.45584114 616.17709106 17.78584114 619.23709106 18.12584114 C619.23709106 18.78584114 619.23709106 19.44584114 619.23709106 20.12584114 C620.00021606 20.08459114 620.76334106 20.04334114 621.54959106 20.00084114 C624.23709106 20.12584114 624.23709106 20.12584114 627.23709106 22.12584114 C627.23709106 22.78584114 627.23709106 23.44584114 627.23709106 24.12584114 C627.93834106 24.24959114 628.63959106 24.37334114 629.36209106 24.50084114 C632.43344424 25.16852661 635.30452686 25.99280497 638.23709106 27.12584114 C638.56709106 27.78584114 638.89709106 28.44584114 639.23709106 29.12584114 C639.89709106 29.12584114 640.55709106 29.12584114 641.23709106 29.12584114 C641.23709106 29.78584114 641.23709106 30.44584114 641.23709106 31.12584114 C642.55709106 31.12584114 643.87709106 31.12584114 645.23709106 31.12584114 C645.23709106 31.78584114 645.23709106 32.44584114 645.23709106 33.12584114 C645.95896606 33.37334114 646.68084106 33.62084114 647.42459106 33.87584114 C650.48766914 35.23720918 652.65043446 37.01567391 655.23709106 39.12584114 C656.22709106 39.45584114 657.21709106 39.78584114 658.23709106 40.12584114 C658.23709106 40.78584114 658.23709106 41.44584114 658.23709106 42.12584114 C658.89709106 42.12584114 659.55709106 42.12584114 660.23709106 42.12584114 C660.89709106 43.11584114 661.55709106 44.10584114 662.23709106 45.12584114 C663.00021606 45.57959114 663.76334106 46.03334114 664.54959106 46.50084114 C668.61995395 48.96199079 671.47923192 52.17310393 674.42459106 55.87584114 C676.04018184 58.20071502 676.04018184 58.20071502 678.23709106 59.12584114 C678.23709106 59.78584114 678.23709106 60.44584114 678.23709106 61.12584114 C678.89709106 61.12584114 679.55709106 61.12584114 680.23709106 61.12584114 C680.56709106 62.77584114 680.89709106 64.42584114 681.23709106 66.12584114 C682.22709106 66.12584114 683.21709106 66.12584114 684.23709106 66.12584114 C685.55349731 67.84068489 685.55349731 67.84068489 686.79959106 70.06334114 C688.44047817 73.18671516 688.44047817 73.18671516 691.23709106 75.12584114 C691.23709106 76.44584114 691.23709106 77.76584114 691.23709106 79.12584114 C691.89709106 79.12584114 692.55709106 79.12584114 693.23709106 79.12584114 C693.50521606 79.88896614 693.77334106 80.65209114 694.04959106 81.43834114 C695.01853709 84.09043117 695.01853709 84.09043117 696.67459106 85.50865364 C698.52744687 87.4263594 699.37390625 89.24479447 700.42459106 91.68834114 C700.76877075 92.4733802 701.11295044 93.25841927 701.46755981 94.06724739 C702.23709106 96.12584114 702.23709106 96.12584114 702.23709106 98.12584114 C702.89709106 98.12584114 703.55709106 98.12584114 704.23709106 98.12584114 C704.23709106 98.78584114 704.23709106 99.44584114 704.23709106 100.12584114 C704.89709106 100.45584114 705.55709106 100.78584114 706.23709106 101.12584114 C706.64438334 103.44740711 706.98147783 105.78271984 707.23709106 108.12584114 C707.89709106 108.12584114 708.55709106 108.12584114 709.23709106 108.12584114 C709.23709106 110.10584114 709.23709106 112.08584114 709.23709106 114.12584114 C709.89709106 114.12584114 710.55709106 114.12584114 711.23709106 114.12584114 C711.23709106 115.11584114 711.23709106 116.10584114 711.23709106 117.12584114 C711.89709106 117.12584114 712.55709106 117.12584114 713.23709106 117.12584114 C713.3698645 117.90830208 713.50263794 118.69076302 713.63943481 119.49693489 C713.81603638 120.50884895 713.99263794 121.52076302 714.17459106 122.56334114 C714.3486145 123.57267708 714.52263794 124.58201302 714.70193481 125.62193489 C714.98460203 128.05458494 714.98460203 128.05458494 716.23709106 129.12584114 C716.27789889 131.12542478 716.27963463 133.12629368 716.23709106 135.12584114 C716.89709106 135.12584114 717.55709106 135.12584114 718.23709106 135.12584114 C718.38146606 136.26021614 718.52584106 137.39459114 718.67459106 138.56334114 C718.84880584 141.93361315 718.84880584 141.93361315 720.23709106 143.12584114 C720.44548121 144.76691356 720.60460832 146.41440407 720.73709106 148.06334114 C720.98924049 151.73141579 720.98924049 151.73141579 722.23709106 155.12584114 C722.30742875 156.99963719 722.32139326 158.87585216 722.29959106 160.75084114 C722.29056763 161.75373177 722.28154419 162.75662239 722.27224731 163.78990364 C722.25484497 164.9461927 722.25484497 164.9461927 722.23709106 166.12584114 C722.89709106 166.12584114 723.55709106 166.12584114 724.23709106 166.12584114 C724.23709106 185.59584114 724.23709106 205.06584114 724.23709106 225.12584114 C723.57709106 225.12584114 722.91709106 225.12584114 722.23709106 225.12584114 C722.26029419 225.78068489 722.28349731 226.43552864 722.30740356 227.11021614 C722.51142506 237.42787485 720.57205581 247.11884937 718.23709106 257.12584114 C717.57709106 257.12584114 716.91709106 257.12584114 716.23709106 257.12584114 C716.29896606 258.39427864 716.29896606 258.39427864 716.36209106 259.68834114 C716.22472624 263.46587389 715.36912765 266.52996022 714.23709106 270.12584114 C713.8957318 271.45714229 713.55783151 272.78942262 713.23709106 274.12584114 C712.57709106 274.12584114 711.91709106 274.12584114 711.23709106 274.12584114 C711.23709106 275.77584114 711.23709106 277.42584114 711.23709106 279.12584114 C710.57709106 279.12584114 709.91709106 279.12584114 709.23709106 279.12584114 C709.23709106 280.77584114 709.23709106 282.42584114 709.23709106 284.12584114 C708.57709106 284.12584114 707.91709106 284.12584114 707.23709106 284.12584114 C707.11334106 285.42521614 706.98959106 286.72459114 706.86209106 288.06334114 C706.65115356 290.27818489 706.65115356 290.27818489 706.23709106 292.12584114 C705.24709106 292.62084114 705.24709106 292.62084114 704.23709106 293.12584114 C704.23709106 293.78584114 704.23709106 294.44584114 704.23709106 295.12584114 C703.57709106 295.12584114 702.91709106 295.12584114 702.23709106 295.12584114 C702.04373169 295.72912239 701.85037231 296.33240364 701.65115356 296.95396614 C701.26056763 298.15279427 701.26056763 298.15279427 700.86209106 299.37584114 C700.60685669 300.16474739 700.35162231 300.95365364 700.08865356 301.76646614 C697.91587894 307.7864472 697.91587894 307.7864472 695.23709106 309.12584114 C694.57840609 310.51799627 693.98303023 311.94053368 693.42459106 313.37584114 C691.66524447 317.53369769 689.57933186 320.04746146 686.23709106 323.12584114 C685.5412884 324.44420409 684.86484674 325.773752 684.23709106 327.12584114 C683.24709106 327.62084114 683.24709106 327.62084114 682.23709106 328.12584114 C680.35568028 331.02634944 678.73614998 334.01241109 677.23709106 337.12584114 C676.57709106 337.12584114 675.91709106 337.12584114 675.23709106 337.12584114 C673.7025174 338.64304097 673.7025174 338.64304097 672.11209106 340.62584114 C666.69774208 346.97447487 661.32212074 352.67710157 654.23709106 357.12584114 C652.52787517 358.66707234 652.52787517 358.66707234 651.23709106 360.12584114 C650.57709106 360.78584114 649.91709106 361.44584114 649.23709106 362.12584114 C648.24709106 362.12584114 647.25709106 362.12584114 646.23709106 362.12584114 C645.90709106 362.78584114 645.57709106 363.44584114 645.23709106 364.12584114 C643.53005981 365.41490364 643.53005981 365.41490364 641.42459106 366.75084114 C640.73752075 367.19685677 640.05045044 367.64287239 639.34255981 368.10240364 C637.23709106 369.12584114 637.23709106 369.12584114 633.23709106 369.12584114 C632.90709106 369.78584114 632.57709106 370.44584114 632.23709106 371.12584114 C631.57709106 371.78584114 630.91709106 372.44584114 630.23709106 373.12584114 C628.91709106 373.12584114 627.59709106 373.12584114 626.23709106 373.12584114 C626.23709106 373.78584114 626.23709106 374.44584114 626.23709106 375.12584114 C624.53552856 375.55896614 624.53552856 375.55896614 622.79959106 376.00084114 C621.62396606 376.37209114 620.44834106 376.74334114 619.23709106 377.12584114 C618.90709106 377.78584114 618.57709106 378.44584114 618.23709106 379.12584114 C616.39529419 379.78013802 616.39529419 379.78013802 614.01834106 380.34459114 C613.16884888 380.55470833 612.31935669 380.76482552 611.44412231 380.98130989 C609.63943481 381.41099739 607.83474731 381.84068489 606.03005981 382.27037239 C605.18056763 382.48048958 604.33107544 382.69060677 603.45584106 382.90709114 C602.27924927 383.18649544 602.27924927 383.18649544 601.07888794 383.47154427 C599.03159903 383.95922717 599.03159903 383.95922717 598.23709106 386.12584114 C591.71448705 388.18660589 585.08267315 389.60343989 578.23709106 389.12584114 C578.23709106 390.11584114 578.23709106 391.10584114 578.23709106 392.12584114 C576.94931763 392.25861458 575.66154419 392.39138802 574.33474731 392.52818489 C572.65633745 392.70634013 570.97795333 392.88473806 569.29959106 393.06334114 C568.44945435 393.15035286 567.59931763 393.23736458 566.72341919 393.32701302 C565.91453247 393.41402473 565.10564575 393.50103645 564.27224731 393.59068489 C563.1489502 393.70851326 563.1489502 393.70851326 562.00296021 393.828722 C560.21569093 393.95391494 560.21569093 393.95391494 559.23709106 395.12584114 C557.24092601 395.35465652 555.23754914 395.52115802 553.23318481 395.66099739 C552.01824341 395.74800911 550.803302 395.83502083 549.55154419 395.92466927 C548.27214966 396.01168098 546.99275513 396.0986927 545.67459106 396.18834114 C544.39132935 396.27922005 543.10806763 396.37009895 541.78591919 396.46373177 C538.60324092 396.6885306 535.42032248 396.90903932 532.23709106 397.12584114 C532.23709106 397.78584114 532.23709106 398.44584114 532.23709106 399.12584114 C510.31076505 400.41295836 488.38203889 400.25737139 466.42746353 400.22723508 C461.02636087 400.2209074 455.62525741 400.2203904 450.22415161 400.21920967 C440.03577184 400.21612374 429.84740303 400.20794794 419.65902805 400.19786018 C408.04321636 400.18661314 396.42740409 400.18116712 384.81158829 400.17616475 C360.95341651 400.16576248 337.09525441 400.14821707 313.23709106 400.12584114 C313.23766064 400.9663695 313.23766064 400.9663695 313.23824173 401.82387823 C313.26059698 435.00027665 313.27776606 468.17667318 313.28815639 501.35307744 C313.28940717 505.33242642 313.29070149 509.31177539 313.29202271 513.29112434 C313.29228502 514.08337495 313.29254733 514.87562555 313.29281759 515.69188375 C313.29717447 528.53696536 313.30506212 541.38204251 313.31424386 554.22712146 C313.32357988 567.39742054 313.32914656 580.56771728 313.33117956 593.73801953 C313.33255489 601.871424 313.33690605 610.0048159 313.34500753 618.1382165 C313.350895 624.36426374 313.35155016 630.59030129 313.35019875 636.81635094 C313.35047528 639.37828525 313.35248313 641.94022 313.35629654 644.50215149 C313.36122656 647.98317294 313.36009192 651.46413926 313.35734558 654.94516182 C313.36025842 655.97335028 313.36317126 657.00153873 313.36617237 658.06088442 C313.36418132 658.98597529 313.36219028 659.91106617 313.36013889 660.8641901 C313.36070847 662.07113117 313.36070847 662.07113117 313.36128956 663.30245489 C313.23709106 665.12584114 313.23709106 665.12584114 312.23709106 666.12584114 C277.58709106 666.12584114 242.93709106 666.12584114 207.23709106 666.12584114 C207.23709106 578.34584114 207.23709106 490.56584114 207.23709106 400.12584114 C144.14333674 400.16535717 144.14333674 400.16535717 81.04959106 400.21592903 C68.78005981 400.22044563 68.78005981 400.22044563 63.01589966 400.22128487 C59.03444855 400.2222075 55.05301109 400.22591849 51.07156372 400.2314167 C8.04030891 400.28832786 8.04030891 400.28832786 -11.76290894 399.12584114 C-11.76290894 398.46584114 -11.76290894 397.80584114 -11.76290894 397.12584114 C-12.98191895 397.04281746 -12.98191895 397.04281746 -14.22555542 396.95811653 C-17.88418525 396.70627617 -21.54228379 396.44740475 -25.20040894 396.18834114 C-26.47980347 396.10132942 -27.759198 396.0143177 -29.07736206 395.92466927 C-30.29230347 395.83765755 -31.50724487 395.75064583 -32.75900269 395.66099739 C-33.88491821 395.58244514 -35.01083374 395.5038929 -36.17086792 395.42296028 C-38.76290894 395.12584114 -38.76290894 395.12584114 -39.76290894 394.12584114 C-41.10093079 393.90071013 -42.44863917 393.73223307 -43.79806519 393.59068489 C-44.6069519 393.50367317 -45.41583862 393.41666145 -46.24923706 393.32701302 C-47.09937378 393.2400013 -47.9495105 393.15298958 -48.82540894 393.06334114 C-49.67941284 392.97246223 -50.53341675 392.88158333 -51.41329956 392.78795052 C-53.52942428 392.56333393 -55.64611788 392.34408887 -57.76290894 392.12584114 C-57.76290894 391.13584114 -57.76290894 390.14584114 -57.76290894 389.12584114 C-59.09322144 389.21865364 -59.09322144 389.21865364 -60.45040894 389.31334114 C-66.30542629 389.32541334 -72.20496009 387.88183077 -77.76290894 386.12584114 C-78.09290894 385.46584114 -78.42290894 384.80584114 -78.76290894 384.12584114 C-81.06551395 383.27903335 -81.06551395 383.27903335 -83.82540894 382.62584114 C-84.81411987 382.3693177 -85.80283081 382.11279427 -86.82150269 381.84849739 C-88.62306332 381.40588289 -90.42726563 380.97365833 -92.23556519 380.55943489 C-94.09034434 380.13192681 -95.9289395 379.6352771 -97.76290894 379.12584114 C-98.09290894 378.46584114 -98.42290894 377.80584114 -98.76290894 377.12584114 C-101.07697113 376.39508466 -103.41119763 375.72445856 -105.76290894 375.12584114 C-105.76290894 374.46584114 -105.76290894 373.80584114 -105.76290894 373.12584114 C-107.08290894 373.12584114 -108.40290894 373.12584114 -109.76290894 373.12584114 C-111.76290894 371.12584114 -111.76290894 371.12584114 -112.76290894 369.12584114 C-113.46415894 369.00209114 -114.16540894 368.87834114 -114.88790894 368.75084114 C-118.77876235 367.90500344 -121.39777439 366.26140729 -124.76290894 364.12584114 C-125.09290894 363.46584114 -125.42290894 362.80584114 -125.76290894 362.12584114 C-126.75290894 361.79584114 -127.74290894 361.46584114 -128.76290894 361.12584114 C-132.62789374 359.57984722 -134.87305981 357.08136865 -137.76290894 354.12584114 C-139.02566362 353.01244454 -140.29719387 351.90895405 -141.57540894 350.81334114 C-152.77276632 341.10612638 -152.77276632 341.10612638 -154.76290894 337.12584114 C-155.42290894 337.12584114 -156.08290894 337.12584114 -156.76290894 337.12584114 C-158.29769964 334.82365508 -159.58512467 332.50363271 -160.76290894 330.00084114 C-161.66498851 328.09031249 -161.66498851 328.09031249 -163.13790894 326.75084114 C-164.76290894 325.12584114 -164.76290894 325.12584114 -166.82540894 322.00084114 C-168.45436347 319.07520072 -168.45436347 319.07520072 -170.76290894 318.12584114 C-171.85288979 315.91057642 -172.74401833 313.6424356 -173.66525269 311.35240364 C-174.78895535 309.07300679 -175.97948949 307.89539981 -177.76290894 306.12584114 C-178.93087769 303.93443489 -178.93087769 303.93443489 -179.95040894 301.56334114 C-180.29458862 300.77830208 -180.63876831 299.99326302 -180.99337769 299.18443489 C-181.76290894 297.12584114 -181.76290894 297.12584114 -181.76290894 295.12584114 C-182.42290894 295.12584114 -183.08290894 295.12584114 -183.76290894 295.12584114 C-183.76290894 294.46584114 -183.76290894 293.80584114 -183.76290894 293.12584114 C-184.42290894 292.79584114 -185.08290894 292.46584114 -185.76290894 292.12584114 C-186.35646507 289.47723687 -186.50500162 286.83386792 -186.76290894 284.12584114 C-187.42290894 284.12584114 -188.08290894 284.12584114 -188.76290894 284.12584114 C-188.76290894 282.47584114 -188.76290894 280.82584114 -188.76290894 279.12584114 C-189.42290894 279.12584114 -190.08290894 279.12584114 -190.76290894 279.12584114 C-190.76290894 277.47584114 -190.76290894 275.82584114 -190.76290894 274.12584114 C-191.42290894 274.12584114 -192.08290894 274.12584114 -192.76290894 274.12584114 C-192.89568237 273.4155677 -193.02845581 272.70529427 -193.16525269 271.97349739 C-193.34185425 271.05439583 -193.51845581 270.13529427 -193.70040894 269.18834114 C-193.87443237 268.2718177 -194.04845581 267.35529427 -194.22775269 266.41099739 C-194.54005882 264.1729427 -194.54005882 264.1729427 -195.76290894 263.12584114 C-195.80371676 261.1262575 -195.8054525 259.1253886 -195.76290894 257.12584114 C-196.42290894 257.12584114 -197.08290894 257.12584114 -197.76290894 257.12584114 C-199.39069223 250.97805243 -199.96480983 245.48571918 -199.76290894 239.12584114 C-200.42290894 239.12584114 -201.08290894 239.12584114 -201.76290894 239.12584114 C-201.76290894 234.50584114 -201.76290894 229.88584114 -201.76290894 225.12584114 C-202.42290894 225.12584114 -203.08290894 225.12584114 -203.76290894 225.12584114 C-203.76290894 205.65584114 -203.76290894 186.18584114 -203.76290894 166.12584114 C-203.10290894 166.12584114 -202.44290894 166.12584114 -201.76290894 166.12584114 C-201.76290894 161.83584114 -201.76290894 157.54584114 -201.76290894 153.12584114 C-201.10290894 153.12584114 -200.44290894 153.12584114 -199.76290894 153.12584114 C-199.78031128 152.06043098 -199.78031128 152.06043098 -199.79806519 150.97349739 C-199.80708862 150.05439583 -199.81611206 149.13529427 -199.82540894 148.18834114 C-199.8370105 147.2718177 -199.84861206 146.35529427 -199.86056519 145.41099739 C-199.76290894 143.12584114 -199.76290894 143.12584114 -198.76290894 142.12584114 C-198.39530162 139.7976615 -198.06049313 137.46400264 -197.76290894 135.12584114 C-197.10290894 135.12584114 -196.44290894 135.12584114 -195.76290894 135.12584114 C-195.80415894 134.25959114 -195.84540894 133.39334114 -195.88790894 132.50084114 C-195.75687302 128.96287149 -194.93855244 126.44530515 -193.76290894 123.12584114 C-193.39370703 121.13215083 -193.04965311 119.13305037 -192.76290894 117.12584114 C-192.10290894 117.12584114 -191.44290894 117.12584114 -190.76290894 117.12584114 C-190.76290894 116.13584114 -190.76290894 115.14584114 -190.76290894 114.12584114 C-190.10290894 114.12584114 -189.44290894 114.12584114 -188.76290894 114.12584114 C-188.76290894 112.14584114 -188.76290894 110.16584114 -188.76290894 108.12584114 C-188.10290894 108.12584114 -187.44290894 108.12584114 -186.76290894 108.12584114 C-186.57728394 106.42427864 -186.57728394 106.42427864 -186.38790894 104.68834114 C-186.07853394 102.92490364 -186.07853394 102.92490364 -185.76290894 101.12584114 C-184.77290894 100.63084114 -184.77290894 100.63084114 -183.76290894 100.12584114 C-183.76290894 99.46584114 -183.76290894 98.80584114 -183.76290894 98.12584114 C-183.10290894 98.12584114 -182.44290894 98.12584114 -181.76290894 98.12584114 C-181.56954956 97.52255989 -181.37619019 96.91927864 -181.17697144 96.29771614 C-180.91658081 95.49849739 -180.65619019 94.69927864 -180.38790894 93.87584114 C-180.00505737 92.69248177 -180.00505737 92.69248177 -179.61447144 91.48521614 C-177.44169681 85.46523508 -177.44169681 85.46523508 -174.76290894 84.12584114 C-174.04131469 82.4822098 -173.36939473 80.81533728 -172.76290894 79.12584114 C-172.10290894 79.12584114 -171.44290894 79.12584114 -170.76290894 79.12584114 C-170.76290894 77.80584114 -170.76290894 76.48584114 -170.76290894 75.12584114 C-169.13951089 73.41700109 -167.46971841 71.75137397 -165.76290894 70.12584114 C-164.46770898 67.9596357 -164.46770898 67.9596357 -163.76290894 66.12584114 C-162.77290894 66.12584114 -161.78290894 66.12584114 -160.76290894 66.12584114 C-160.53603394 65.23896614 -160.30915894 64.35209114 -160.07540894 63.43834114 C-158.12609479 58.51864353 -154.64210945 55.83045001 -150.63790894 52.56334114 C-147.79109938 50.33642174 -147.79109938 50.33642174 -146.13790894 47.93834114 C-144.55335002 45.84960439 -143.10576508 45.21917401 -140.76290894 44.12584114 C-140.26790894 43.13584114 -140.26790894 43.13584114 -139.76290894 42.12584114 C-139.10290894 42.12584114 -138.44290894 42.12584114 -137.76290894 42.12584114 C-137.76290894 41.46584114 -137.76290894 40.80584114 -137.76290894 40.12584114 C-136.11290894 39.79584114 -134.46290894 39.46584114 -132.76290894 39.12584114 C-132.76290894 38.46584114 -132.76290894 37.80584114 -132.76290894 37.12584114 C-127.35114423 33.12584114 -127.35114423 33.12584114 -124.76290894 33.12584114 C-124.76290894 32.46584114 -124.76290894 31.80584114 -124.76290894 31.12584114 C-123.44290894 31.12584114 -122.12290894 31.12584114 -120.76290894 31.12584114 C-120.76290894 30.46584114 -120.76290894 29.80584114 -120.76290894 29.12584114 C-120.10290894 29.12584114 -119.44290894 29.12584114 -118.76290894 29.12584114 C-118.43290894 28.46584114 -118.10290894 27.80584114 -117.76290894 27.12584114 C-113.77841206 25.1711823 -111.24016177 24.12584114 -106.76290894 24.12584114 C-106.43290894 23.46584114 -106.10290894 22.80584114 -105.76290894 22.12584114 C-103.76290894 20.12584114 -103.76290894 20.12584114 -101.13790894 20.00084114 C-100.35415894 20.04209114 -99.57040894 20.08334114 -98.76290894 20.12584114 C-98.76290894 19.46584114 -98.76290894 18.80584114 -98.76290894 18.12584114 C-95.79290894 17.79584114 -92.82290894 17.46584114 -89.76290894 17.12584114 C-89.76290894 16.13584114 -89.76290894 15.14584114 -89.76290894 14.12584114 C-85.80290894 13.79584114 -81.84290894 13.46584114 -77.76290894 13.12584114 C-77.76290894 12.46584114 -77.76290894 11.80584114 -77.76290894 11.12584114 C-73.14290894 10.79584114 -68.52290894 10.46584114 -63.76290894 10.12584114 C-63.76290894 9.13584114 -63.76290894 8.14584114 -63.76290894 7.12584114 C-63.19257935 7.07049202 -62.62224976 7.0151429 -62.03463745 6.95811653 C-59.46442141 6.70610371 -56.89493262 6.44731386 -54.32540894 6.18834114 C-52.97866089 6.05782356 -52.97866089 6.05782356 -51.60470581 5.92466927 C-50.7507019 5.83765755 -49.896698 5.75064583 -49.01681519 5.66099739 C-48.22605591 5.58244514 -47.43529663 5.5038929 -46.62057495 5.42296028 C-44.75187546 5.31032616 -44.75187546 5.31032616 -43.76290894 4.12584114 C-33.19057653 2.65443405 -22.40703258 3.02468263 -11.76290894 3.12584114 C-11.76290894 2.46584114 -11.76290894 1.80584114 -11.76290894 1.12584114 C-7.8332966 -0.18402964 -4.09587348 -0.01122323 0 0 Z " fill="#000000" transform="translate(239.76290893554688,156.87415885925293)"/>
<path d="M0 0 C1.0908318 0.0023229 1.0908318 0.0023229 2.2037006 0.00469273 C2.97085174 0.00242718 3.73800288 0.00016162 4.52840102 -0.00217259 C7.11871463 -0.00854148 9.70897631 -0.00768139 12.29929692 -0.00685817 C14.14839327 -0.00984786 15.997489 -0.01324994 17.8465839 -0.01703578 C22.88369174 -0.02589924 27.92078261 -0.02821487 32.95789748 -0.02885157 C37.1554804 -0.02979868 41.35305932 -0.03347468 45.5506407 -0.03702366 C55.44960888 -0.04517709 65.34856796 -0.04760708 75.2475391 -0.04689723 C85.47618862 -0.04629616 95.70478544 -0.0568518 105.93342161 -0.0726409 C114.70028197 -0.08569387 123.46712507 -0.09108208 132.23399508 -0.09044182 C137.47667185 -0.09018618 142.71930182 -0.09307377 147.96196896 -0.10361987 C152.89077687 -0.11326327 157.8194929 -0.11340604 162.74830395 -0.10610324 C164.56159304 -0.1050527 166.37488774 -0.10744785 168.18816715 -0.1134637 C170.65512485 -0.12112075 173.12176019 -0.11658101 175.58871037 -0.10883266 C176.31370084 -0.11397622 177.03869132 -0.11911978 177.78565121 -0.12441921 C182.73142607 -0.08986574 182.73142607 -0.08986574 184.95969731 2.1384055 C185.15564113 5.19472118 185.22440713 8.16036305 185.20693547 11.21776646 C185.20934988 12.17023745 185.2117643 13.12270843 185.21425188 14.10404217 C185.21991568 17.31551622 185.21120558 20.52679371 185.20261723 23.73825902 C185.20368944 26.03246937 185.20562721 28.32667945 185.20836979 30.62088841 C185.21323077 36.86653228 185.20554707 43.11210507 185.19541675 49.35774034 C185.18665767 55.87959358 185.18839327 62.40144444 185.18877751 68.92330235 C185.18783996 79.87644481 185.1791971 90.8295591 185.16550785 101.78269261 C185.15141654 113.06329667 185.14433719 124.34387651 185.14500004 135.62448949 C185.14504 136.31936861 185.14507995 137.01424773 185.14512112 137.73018379 C185.14516147 138.42383727 185.14520183 139.11749076 185.14524341 139.83216405 C185.14589758 152.00911337 185.14075646 164.18605095 185.13245159 176.36299771 C185.12891112 181.55638458 185.12708726 186.74976793 185.12655789 191.94315594 C185.12555697 198.05223142 185.11948102 204.16128123 185.10939175 210.27034825 C185.10645873 212.51944575 185.10524299 214.7685462 185.10581928 217.01764554 C185.10630624 220.07380081 185.10069138 223.12988303 185.09341007 226.18602818 C185.09495868 227.08834205 185.09650728 227.99065593 185.09810281 228.92031264 C185.07387581 235.024227 185.07387581 235.024227 183.95969731 236.1384055 C181.49534224 236.24278186 179.05877249 236.28173411 176.59366947 236.2788474 C175.42251556 236.28330408 175.42251556 236.28330408 174.22770196 236.2878508 C171.58985386 236.29657816 168.95205093 236.29804959 166.31418949 236.29953831 C164.43008409 236.30416461 162.54597962 236.30918901 160.66187626 236.31458348 C155.51965678 236.32775044 150.3774504 236.33416381 145.23521668 236.33859414 C142.01226396 236.34152533 138.7893148 236.3456308 135.56636387 236.35009831 C125.45516203 236.36380066 115.34396835 236.37344702 105.23275787 236.3773002 C93.61784226 236.38175142 82.00304608 236.39914945 70.38816673 236.4283008 C61.38479298 236.45009861 52.38145232 236.46001444 43.37805253 236.46134132 C38.01655656 236.46237894 32.65517238 236.46805672 27.29370457 236.48616093 C-25.62159363 236.6544843 -25.62159363 236.6544843 -51.04030269 231.1384055 C-51.04030269 230.4784055 -51.04030269 229.8184055 -51.04030269 229.1384055 C-52.21592769 229.0559055 -53.39155269 228.9734055 -54.60280269 228.8884055 C-59.1948009 228.3814489 -63.57883277 227.36287386 -68.04030269 226.2009055 C-69.04685909 225.94615453 -69.04685909 225.94615453 -70.07374996 225.68625706 C-71.74816535 225.23539512 -73.397554 224.69367132 -75.04030269 224.1384055 C-75.37030269 223.4784055 -75.70030269 222.8184055 -76.04030269 222.1384055 C-79.29794149 220.77881245 -82.61112125 219.6316526 -85.93874019 218.45481175 C-88.81042283 217.23597416 -90.03505631 216.39964078 -92.04030269 214.1384055 C-93.09217769 213.5609055 -94.14405269 212.9834055 -95.22780269 212.3884055 C-102.1571918 208.54361788 -108.50594573 202.64795584 -113.04030269 196.1384055 C-113.04030269 195.4784055 -113.04030269 194.8184055 -113.04030269 194.1384055 C-113.65905269 193.8909055 -114.27780269 193.6434055 -114.91530269 193.3884055 C-117.46534194 191.88838242 -117.80252618 190.7686806 -119.04030269 188.1384055 C-119.99936519 187.2102805 -119.99936519 187.2102805 -120.97780269 186.2634055 C-124.59863484 182.53285117 -126.04030269 179.32430719 -126.04030269 174.1384055 C-126.70030269 174.1384055 -127.36030269 174.1384055 -128.04030269 174.1384055 C-131.65705232 165.34437976 -135.15464728 156.48876291 -137.04030269 147.1384055 C-137.22721676 146.220593 -137.41413082 145.3027805 -137.60670894 144.3571555 C-141.01638121 123.94680965 -141.6621296 99.00388623 -135.04030269 79.1384055 C-134.38030269 79.1384055 -133.72030269 79.1384055 -133.04030269 79.1384055 C-132.95780269 78.2309055 -132.87530269 77.3234055 -132.79030269 76.3884055 C-132.013414 70.76465897 -129.9222704 65.46918846 -128.04030269 60.1384055 C-127.38030269 60.1384055 -126.72030269 60.1384055 -126.04030269 60.1384055 C-125.80053707 59.11102269 -125.56077144 58.08363988 -125.31374019 57.02512425 C-124.17386771 53.04558702 -122.21572115 50.22577837 -119.66530269 46.9509055 C-118.50901363 45.44463597 -118.50901363 45.44463597 -117.32936519 43.90793675 C-115.33877825 41.49953036 -113.25080607 39.33914948 -111.04030269 37.1384055 C-110.73092769 36.4784055 -110.42155269 35.8184055 -110.10280269 35.1384055 C-108.63429495 32.37415563 -106.51714861 31.01114266 -104.04030269 29.1384055 C-103.56592769 28.6434055 -103.09155269 28.1484055 -102.60280269 27.6384055 C-101.04030269 26.1384055 -101.04030269 26.1384055 -97.91530269 24.0759055 C-94.98966227 22.44695097 -94.98966227 22.44695097 -94.04030269 20.1384055 C-92.26295894 19.068093 -92.26295894 19.068093 -90.10280269 18.0134055 C-89.39252926 17.66020238 -88.68225582 17.30699925 -87.95045894 16.943093 C-86.04030269 16.1384055 -86.04030269 16.1384055 -84.04030269 16.1384055 C-84.04030269 15.4784055 -84.04030269 14.8184055 -84.04030269 14.1384055 C-73.66672638 9.73066063 -73.66672638 9.73066063 -68.04030269 9.1384055 C-68.04030269 8.4784055 -68.04030269 7.8184055 -68.04030269 7.1384055 C-50.13648589 2.25554637 -31.07731321 2.1028437 -12.63014644 1.4797141 C-11.34624019 1.43258275 -11.34624019 1.43258275 -10.03639644 1.38449925 C-8.90995723 1.34860692 -8.90995723 1.34860692 -7.76076168 1.31198949 C-5.07546614 1.04105928 -3.06991659 0.01509798 0 0 Z " fill="#40A62A" transform="translate(271.04030269384384,237.8615944981575)"/>
<path d="M0 0 C23.61066248 -0.02345256 47.22132319 -0.04103949 70.83199501 -0.05181217 C81.79701758 -0.05694903 92.76203288 -0.06394147 103.72705078 -0.07543945 C113.29403036 -0.08546658 122.86100467 -0.09187237 132.42798936 -0.09408849 C137.48462921 -0.09538208 142.54125398 -0.09838093 147.59788895 -0.10573006 C188.06694059 -0.16236301 188.06694059 -0.16236301 206 1 C206 1.66 206 2.32 206 3 C207.77890625 2.96519531 207.77890625 2.96519531 209.59375 2.9296875 C224.07394695 2.73409049 237.77512369 4.16707972 252 7 C252 7.66 252 8.32 252 9 C252.56847656 9.10957031 253.13695312 9.21914062 253.72265625 9.33203125 C258.81635627 10.37798301 263.34016733 11.67008367 268 14 C268.33 14.66 268.66 15.32 269 16 C270.655611 16.93393441 272.34950522 17.80102783 274.0625 18.625 C274.98160156 19.07101562 275.90070313 19.51703125 276.84765625 19.9765625 C277.55792969 20.31429688 278.26820313 20.65203125 279 21 C279 21.66 279 22.32 279 23 C279.5775 23.268125 280.155 23.53625 280.75 23.8125 C283.05550043 25.02929189 285.02056192 26.30333879 287 28 C287 28.66 287 29.32 287 30 C288.0828125 30.2784375 288.0828125 30.2784375 289.1875 30.5625 C292.55144747 32.28185093 293.78317629 34.12956584 295.7890625 37.24609375 C297.03777661 39.05471515 298.44551447 40.45389444 300 42 C300.7734375 43.299375 300.7734375 43.299375 301.5625 44.625 C302.77912906 47.11190375 302.77912906 47.11190375 305 48 C305.93761121 49.61098653 306.80391401 51.26411715 307.625 52.9375 C308.07101562 53.83339844 308.51703125 54.72929687 308.9765625 55.65234375 C310 58 310 58 310 60 C310.66 60 311.32 60 312 60 C312.84334329 62.22582389 313.67478551 64.45496026 314.5 66.6875 C314.73847656 67.31333984 314.97695313 67.93917969 315.22265625 68.58398438 C316.5412725 72.18192299 317.29329235 75.16520253 317 79 C317.66 79 318.32 79 319 79 C319.48404266 81.62418097 319.96229498 84.24921597 320.4375 86.875 C320.57220703 87.60203125 320.70691406 88.3290625 320.84570312 89.078125 C324.83436736 111.25898951 323.55730053 133.98737858 319 156 C318.34 156 317.68 156 317 156 C316.9175 156.928125 316.835 157.85625 316.75 158.8125 C316.01757075 164.12534498 313.93313849 169.02778798 312 174 C311.34 174 310.68 174 310 174 C309.896875 174.515625 309.79375 175.03125 309.6875 175.5625 C308.31654133 180.42317163 306.73977608 184.559406 303 188 C302.38125 188.94875 301.7625 189.8975 301.125 190.875 C298.97274832 194.040076 296.76545539 196.35745373 294 199 C293.28070312 199.75152344 292.56140625 200.50304687 291.8203125 201.27734375 C290.64082031 202.50130859 290.64082031 202.50130859 289.4375 203.75 C288.32181641 204.91789062 288.32181641 204.91789062 287.18359375 206.109375 C285.01554477 207.98654084 283.79816289 208.61929757 281 209 C281 209.66 281 210.32 281 211 C279.27473958 211.94401042 277.54947917 212.88802083 275.82421875 213.83203125 C273.95833795 214.91790959 273.95833795 214.91790959 272.6171875 216.5 C270.43698831 218.52221374 268.23502724 219.21525684 265.4375 220.1875 C264.46683594 220.53167969 263.49617188 220.87585938 262.49609375 221.23046875 C260 222 260 222 258 222 C258 222.66 258 223.32 258 224 C254.91882573 224.84145956 251.83474379 225.67173062 248.75 226.5 C247.87730469 226.73847656 247.00460937 226.97695313 246.10546875 227.22265625 C244.83896484 227.56103516 244.83896484 227.56103516 243.546875 227.90625 C242.77182617 228.11572266 241.99677734 228.32519531 241.19824219 228.54101562 C239 229 239 229 235 229 C235 229.66 235 230.32 235 231 C207.2127856 235.86357311 179.86125168 236.29244472 151.72855616 236.23571944 C146.38396998 236.22683388 141.03938576 236.22869824 135.6947937 236.2290802 C126.75029007 236.22814978 117.8058208 236.21954117 108.86132812 236.20581055 C98.51406124 236.18998556 88.1668316 236.1848164 77.81955349 236.1855461 C66.77425835 236.1862198 55.72897756 236.17930107 44.68368673 236.1700995 C41.50430465 236.1679664 38.32492488 236.16725815 35.14554214 236.16686058 C30.17296028 236.16586042 25.20040998 236.15979095 20.22783852 236.14969444 C18.39960104 236.14676214 16.57135993 236.14554554 14.74312019 236.14612198 C12.25954969 236.146609 9.77606903 236.14099407 7.29251099 236.13371277 C6.56015956 236.13526137 5.82780813 236.13680997 5.07326424 236.1384055 C0.11418154 236.11418154 0.11418154 236.11418154 -1 235 C-1.10021684 232.02322848 -1.1343816 229.06958056 -1.12698364 226.09231567 C-1.12854363 225.1461938 -1.13010362 224.20007192 -1.13171089 223.22527969 C-1.13572532 220.02924 -1.13252951 216.83324714 -1.12939453 213.63720703 C-1.13074839 211.35624158 -1.13252824 209.07527634 -1.13470459 206.79431152 C-1.13928122 200.57948605 -1.13748829 194.3646771 -1.1343255 188.14985132 C-1.13180247 181.65962331 -1.13413934 175.16939676 -1.13571167 168.6791687 C-1.13765068 157.07606528 -1.13453263 145.47296942 -1.12945233 133.86986719 C-1.1249864 123.34406787 -1.12575844 112.81827959 -1.13037109 102.29248047 C-1.13572004 90.08073166 -1.13771583 77.86899071 -1.13475883 65.65724075 C-1.13319683 59.18885081 -1.13300014 52.72046847 -1.13629532 46.25207901 C-1.13917688 40.1700998 -1.13719304 34.08814149 -1.13140106 28.00616455 C-1.13007489 25.76919464 -1.13046518 23.53222298 -1.13266373 21.29525375 C-1.13538084 18.25069569 -1.13198708 15.20620532 -1.12698364 12.16165161 C-1.12921436 11.26837225 -1.13144509 10.37509289 -1.13374341 9.45474446 C-1.1228477 6.05575665 -1.08237408 3.24712224 0 0 Z " fill="#FEFEFE" transform="translate(545,238)"/>
<path d="M0 0 C0.91090779 -0.00145344 1.82181557 -0.00290688 2.76032662 -0.00440437 C5.84097676 -0.00808066 8.92157793 -0.00457041 12.00222778 -0.0011425 C14.22182173 -0.00229368 16.44141548 -0.00388117 18.66100883 -0.00586975 C24.78249078 -0.01006357 30.90395724 -0.00797213 37.02543926 -0.00488353 C42.94214644 -0.00286108 48.85885026 -0.00551417 54.77555698 -0.00803089 C67.62878156 -0.01330436 80.48200118 -0.01283717 93.33522624 -0.00995198 C104.58309366 -0.00743945 115.83095926 -0.00677831 127.0788269 -0.00797462 C127.82403988 -0.00805101 128.56925285 -0.00812739 129.33704804 -0.00820609 C132.36187803 -0.00851742 135.38670801 -0.00883582 138.411538 -0.00916586 C166.80445958 -0.01222696 195.197378 -0.00944807 223.5902991 -0.00406896 C248.83259083 0.00067687 274.07487751 0.00025226 299.31716919 -0.00452995 C327.65714915 -0.00988104 355.99712631 -0.0120099 384.3371067 -0.00891769 C387.35652288 -0.00859696 390.37593905 -0.00828412 393.39535522 -0.00797462 C394.51059501 -0.00785601 394.51059501 -0.00785601 395.64836489 -0.007735 C406.89097409 -0.00659606 418.13358127 -0.00793052 429.37619019 -0.01045418 C442.15562035 -0.01330845 454.93504476 -0.01260928 467.7144742 -0.00717343 C474.24027883 -0.00453724 480.76607319 -0.00352998 487.29187775 -0.00682259 C493.25768565 -0.00978722 499.22347371 -0.0081899 505.18927979 -0.00284503 C507.35544701 -0.00172157 509.52161588 -0.00231048 511.68778205 -0.00472082 C514.61660641 -0.00773153 517.54536148 -0.00467321 520.47418213 0 C521.32858139 -0.00234117 522.18298066 -0.00468233 523.06327081 -0.00709444 C526.37725256 0.00358123 529.07075585 0.07039607 532.23709106 1.12584114 C532.23709106 1.78584114 532.23709106 2.44584114 532.23709106 3.12584114 C533.37404419 3.11423958 534.51099731 3.10263802 535.68240356 3.09068489 C554.88504671 2.95502879 554.88504671 2.95502879 564.23709106 4.12584114 C564.56709106 4.45584114 564.89709106 4.78584114 565.23709106 5.12584114 C566.64830008 5.35155298 568.06885149 5.51972463 569.49099731 5.66099739 C570.77200317 5.79151497 570.77200317 5.79151497 572.07888794 5.92466927 C573.42563599 6.05518684 573.42563599 6.05518684 574.79959106 6.18834114 C575.70129028 6.27922005 576.6029895 6.37009895 577.53201294 6.46373177 C579.7666754 6.68838037 582.00166945 6.90889883 584.23709106 7.12584114 C584.23709106 8.11584114 584.23709106 9.10584114 584.23709106 10.12584114 C591.16709106 10.62084114 591.16709106 10.62084114 598.23709106 11.12584114 C598.23709106 11.78584114 598.23709106 12.44584114 598.23709106 13.12584114 C602.19709106 13.45584114 606.15709106 13.78584114 610.23709106 14.12584114 C610.23709106 15.11584114 610.23709106 16.10584114 610.23709106 17.12584114 C613.20709106 17.45584114 616.17709106 17.78584114 619.23709106 18.12584114 C619.23709106 18.78584114 619.23709106 19.44584114 619.23709106 20.12584114 C620.00021606 20.08459114 620.76334106 20.04334114 621.54959106 20.00084114 C624.23709106 20.12584114 624.23709106 20.12584114 627.23709106 22.12584114 C627.23709106 22.78584114 627.23709106 23.44584114 627.23709106 24.12584114 C627.93834106 24.24959114 628.63959106 24.37334114 629.36209106 24.50084114 C632.43344424 25.16852661 635.30452686 25.99280497 638.23709106 27.12584114 C638.56709106 27.78584114 638.89709106 28.44584114 639.23709106 29.12584114 C639.89709106 29.12584114 640.55709106 29.12584114 641.23709106 29.12584114 C641.23709106 29.78584114 641.23709106 30.44584114 641.23709106 31.12584114 C642.55709106 31.12584114 643.87709106 31.12584114 645.23709106 31.12584114 C645.23709106 31.78584114 645.23709106 32.44584114 645.23709106 33.12584114 C645.95896606 33.37334114 646.68084106 33.62084114 647.42459106 33.87584114 C650.48766914 35.23720918 652.65043446 37.01567391 655.23709106 39.12584114 C656.22709106 39.45584114 657.21709106 39.78584114 658.23709106 40.12584114 C658.23709106 40.78584114 658.23709106 41.44584114 658.23709106 42.12584114 C658.89709106 42.12584114 659.55709106 42.12584114 660.23709106 42.12584114 C660.89709106 43.11584114 661.55709106 44.10584114 662.23709106 45.12584114 C663.00021606 45.57959114 663.76334106 46.03334114 664.54959106 46.50084114 C668.61995395 48.96199079 671.47923192 52.17310393 674.42459106 55.87584114 C676.04018184 58.20071502 676.04018184 58.20071502 678.23709106 59.12584114 C678.23709106 59.78584114 678.23709106 60.44584114 678.23709106 61.12584114 C678.89709106 61.12584114 679.55709106 61.12584114 680.23709106 61.12584114 C680.56709106 62.77584114 680.89709106 64.42584114 681.23709106 66.12584114 C682.22709106 66.12584114 683.21709106 66.12584114 684.23709106 66.12584114 C685.55349731 67.84068489 685.55349731 67.84068489 686.79959106 70.06334114 C688.44047817 73.18671516 688.44047817 73.18671516 691.23709106 75.12584114 C691.23709106 76.44584114 691.23709106 77.76584114 691.23709106 79.12584114 C691.89709106 79.12584114 692.55709106 79.12584114 693.23709106 79.12584114 C693.50521606 79.88896614 693.77334106 80.65209114 694.04959106 81.43834114 C695.01853709 84.09043117 695.01853709 84.09043117 696.67459106 85.50865364 C698.52744687 87.4263594 699.37390625 89.24479447 700.42459106 91.68834114 C700.76877075 92.4733802 701.11295044 93.25841927 701.46755981 94.06724739 C702.23709106 96.12584114 702.23709106 96.12584114 702.23709106 98.12584114 C702.89709106 98.12584114 703.55709106 98.12584114 704.23709106 98.12584114 C704.23709106 98.78584114 704.23709106 99.44584114 704.23709106 100.12584114 C704.89709106 100.45584114 705.55709106 100.78584114 706.23709106 101.12584114 C706.64438334 103.44740711 706.98147783 105.78271984 707.23709106 108.12584114 C707.89709106 108.12584114 708.55709106 108.12584114 709.23709106 108.12584114 C709.23709106 110.10584114 709.23709106 112.08584114 709.23709106 114.12584114 C709.89709106 114.12584114 710.55709106 114.12584114 711.23709106 114.12584114 C711.23709106 115.11584114 711.23709106 116.10584114 711.23709106 117.12584114 C711.89709106 117.12584114 712.55709106 117.12584114 713.23709106 117.12584114 C713.3698645 117.90830208 713.50263794 118.69076302 713.63943481 119.49693489 C713.81603638 120.50884895 713.99263794 121.52076302 714.17459106 122.56334114 C714.3486145 123.57267708 714.52263794 124.58201302 714.70193481 125.62193489 C714.98460203 128.05458494 714.98460203 128.05458494 716.23709106 129.12584114 C716.27789889 131.12542478 716.27963463 133.12629368 716.23709106 135.12584114 C716.89709106 135.12584114 717.55709106 135.12584114 718.23709106 135.12584114 C718.38146606 136.26021614 718.52584106 137.39459114 718.67459106 138.56334114 C718.84880584 141.93361315 718.84880584 141.93361315 720.23709106 143.12584114 C720.44548121 144.76691356 720.60460832 146.41440407 720.73709106 148.06334114 C720.98924049 151.73141579 720.98924049 151.73141579 722.23709106 155.12584114 C722.30742875 156.99963719 722.32139326 158.87585216 722.29959106 160.75084114 C722.29056763 161.75373177 722.28154419 162.75662239 722.27224731 163.78990364 C722.25484497 164.9461927 722.25484497 164.9461927 722.23709106 166.12584114 C722.89709106 166.12584114 723.55709106 166.12584114 724.23709106 166.12584114 C724.23709106 185.59584114 724.23709106 205.06584114 724.23709106 225.12584114 C723.57709106 225.12584114 722.91709106 225.12584114 722.23709106 225.12584114 C722.26029419 225.78068489 722.28349731 226.43552864 722.30740356 227.11021614 C722.51142506 237.42787485 720.57205581 247.11884937 718.23709106 257.12584114 C717.57709106 257.12584114 716.91709106 257.12584114 716.23709106 257.12584114 C716.29896606 258.39427864 716.29896606 258.39427864 716.36209106 259.68834114 C716.22472624 263.46587389 715.36912765 266.52996022 714.23709106 270.12584114 C713.8957318 271.45714229 713.55783151 272.78942262 713.23709106 274.12584114 C712.57709106 274.12584114 711.91709106 274.12584114 711.23709106 274.12584114 C711.23709106 275.77584114 711.23709106 277.42584114 711.23709106 279.12584114 C710.57709106 279.12584114 709.91709106 279.12584114 709.23709106 279.12584114 C709.23709106 280.77584114 709.23709106 282.42584114 709.23709106 284.12584114 C708.57709106 284.12584114 707.91709106 284.12584114 707.23709106 284.12584114 C707.11334106 285.42521614 706.98959106 286.72459114 706.86209106 288.06334114 C706.65115356 290.27818489 706.65115356 290.27818489 706.23709106 292.12584114 C705.24709106 292.62084114 705.24709106 292.62084114 704.23709106 293.12584114 C704.23709106 293.78584114 704.23709106 294.44584114 704.23709106 295.12584114 C703.57709106 295.12584114 702.91709106 295.12584114 702.23709106 295.12584114 C702.04373169 295.72912239 701.85037231 296.33240364 701.65115356 296.95396614 C701.26056763 298.15279427 701.26056763 298.15279427 700.86209106 299.37584114 C700.60685669 300.16474739 700.35162231 300.95365364 700.08865356 301.76646614 C697.91587894 307.7864472 697.91587894 307.7864472 695.23709106 309.12584114 C694.57840609 310.51799627 693.98303023 311.94053368 693.42459106 313.37584114 C691.66524447 317.53369769 689.57933186 320.04746146 686.23709106 323.12584114 C685.5412884 324.44420409 684.86484674 325.773752 684.23709106 327.12584114 C683.24709106 327.62084114 683.24709106 327.62084114 682.23709106 328.12584114 C680.35568028 331.02634944 678.73614998 334.01241109 677.23709106 337.12584114 C676.57709106 337.12584114 675.91709106 337.12584114 675.23709106 337.12584114 C673.7025174 338.64304097 673.7025174 338.64304097 672.11209106 340.62584114 C666.69774208 346.97447487 661.32212074 352.67710157 654.23709106 357.12584114 C652.52787517 358.66707234 652.52787517 358.66707234 651.23709106 360.12584114 C650.57709106 360.78584114 649.91709106 361.44584114 649.23709106 362.12584114 C648.24709106 362.12584114 647.25709106 362.12584114 646.23709106 362.12584114 C645.90709106 362.78584114 645.57709106 363.44584114 645.23709106 364.12584114 C643.53005981 365.41490364 643.53005981 365.41490364 641.42459106 366.75084114 C640.73752075 367.19685677 640.05045044 367.64287239 639.34255981 368.10240364 C637.23709106 369.12584114 637.23709106 369.12584114 633.23709106 369.12584114 C632.90709106 369.78584114 632.57709106 370.44584114 632.23709106 371.12584114 C631.57709106 371.78584114 630.91709106 372.44584114 630.23709106 373.12584114 C628.91709106 373.12584114 627.59709106 373.12584114 626.23709106 373.12584114 C626.23709106 373.78584114 626.23709106 374.44584114 626.23709106 375.12584114 C624.53552856 375.55896614 624.53552856 375.55896614 622.79959106 376.00084114 C621.62396606 376.37209114 620.44834106 376.74334114 619.23709106 377.12584114 C618.90709106 377.78584114 618.57709106 378.44584114 618.23709106 379.12584114 C616.39529419 379.78013802 616.39529419 379.78013802 614.01834106 380.34459114 C613.16884888 380.55470833 612.31935669 380.76482552 611.44412231 380.98130989 C609.63943481 381.41099739 607.83474731 381.84068489 606.03005981 382.27037239 C605.18056763 382.48048958 604.33107544 382.69060677 603.45584106 382.90709114 C602.27924927 383.18649544 602.27924927 383.18649544 601.07888794 383.47154427 C599.03159903 383.95922717 599.03159903 383.95922717 598.23709106 386.12584114 C591.71448705 388.18660589 585.08267315 389.60343989 578.23709106 389.12584114 C578.23709106 390.11584114 578.23709106 391.10584114 578.23709106 392.12584114 C576.94931763 392.25861458 575.66154419 392.39138802 574.33474731 392.52818489 C572.65633745 392.70634013 570.97795333 392.88473806 569.29959106 393.06334114 C568.44945435 393.15035286 567.59931763 393.23736458 566.72341919 393.32701302 C565.91453247 393.41402473 565.10564575 393.50103645 564.27224731 393.59068489 C563.1489502 393.70851326 563.1489502 393.70851326 562.00296021 393.828722 C560.21569093 393.95391494 560.21569093 393.95391494 559.23709106 395.12584114 C557.24092601 395.35465652 555.23754914 395.52115802 553.23318481 395.66099739 C552.01824341 395.74800911 550.803302 395.83502083 549.55154419 395.92466927 C548.27214966 396.01168098 546.99275513 396.0986927 545.67459106 396.18834114 C544.39132935 396.27922005 543.10806763 396.37009895 541.78591919 396.46373177 C538.60324092 396.6885306 535.42032248 396.90903932 532.23709106 397.12584114 C532.23709106 397.78584114 532.23709106 398.44584114 532.23709106 399.12584114 C510.31076505 400.41295836 488.38203889 400.25737139 466.42746353 400.22723508 C461.02636087 400.2209074 455.62525741 400.2203904 450.22415161 400.21920967 C440.03577184 400.21612374 429.84740303 400.20794794 419.65902805 400.19786018 C408.04321636 400.18661314 396.42740409 400.18116712 384.81158829 400.17616475 C360.95341651 400.16576248 337.09525441 400.14821707 313.23709106 400.12584114 C313.23766064 400.9663695 313.23766064 400.9663695 313.23824173 401.82387823 C313.26059698 435.00027665 313.27776606 468.17667318 313.28815639 501.35307744 C313.28940717 505.33242642 313.29070149 509.31177539 313.29202271 513.29112434 C313.29228502 514.08337495 313.29254733 514.87562555 313.29281759 515.69188375 C313.29717447 528.53696536 313.30506212 541.38204251 313.31424386 554.22712146 C313.32357988 567.39742054 313.32914656 580.56771728 313.33117956 593.73801953 C313.33255489 601.871424 313.33690605 610.0048159 313.34500753 618.1382165 C313.350895 624.36426374 313.35155016 630.59030129 313.35019875 636.81635094 C313.35047528 639.37828525 313.35248313 641.94022 313.35629654 644.50215149 C313.36122656 647.98317294 313.36009192 651.46413926 313.35734558 654.94516182 C313.36025842 655.97335028 313.36317126 657.00153873 313.36617237 658.06088442 C313.36418132 658.98597529 313.36219028 659.91106617 313.36013889 660.8641901 C313.36070847 662.07113117 313.36070847 662.07113117 313.36128956 663.30245489 C313.23709106 665.12584114 313.23709106 665.12584114 312.23709106 666.12584114 C277.58709106 666.12584114 242.93709106 666.12584114 207.23709106 666.12584114 C207.23709106 578.34584114 207.23709106 490.56584114 207.23709106 400.12584114 C144.14333674 400.16535717 144.14333674 400.16535717 81.04959106 400.21592903 C68.78005981 400.22044563 68.78005981 400.22044563 63.01589966 400.22128487 C59.03444855 400.2222075 55.05301109 400.22591849 51.07156372 400.2314167 C8.04030891 400.28832786 8.04030891 400.28832786 -11.76290894 399.12584114 C-11.76290894 398.46584114 -11.76290894 397.80584114 -11.76290894 397.12584114 C-12.98191895 397.04281746 -12.98191895 397.04281746 -14.22555542 396.95811653 C-17.88418525 396.70627617 -21.54228379 396.44740475 -25.20040894 396.18834114 C-26.47980347 396.10132942 -27.759198 396.0143177 -29.07736206 395.92466927 C-30.29230347 395.83765755 -31.50724487 395.75064583 -32.75900269 395.66099739 C-33.88491821 395.58244514 -35.01083374 395.5038929 -36.17086792 395.42296028 C-38.76290894 395.12584114 -38.76290894 395.12584114 -39.76290894 394.12584114 C-41.10093079 393.90071013 -42.44863917 393.73223307 -43.79806519 393.59068489 C-44.6069519 393.50367317 -45.41583862 393.41666145 -46.24923706 393.32701302 C-47.09937378 393.2400013 -47.9495105 393.15298958 -48.82540894 393.06334114 C-49.67941284 392.97246223 -50.53341675 392.88158333 -51.41329956 392.78795052 C-53.52942428 392.56333393 -55.64611788 392.34408887 -57.76290894 392.12584114 C-57.76290894 391.13584114 -57.76290894 390.14584114 -57.76290894 389.12584114 C-59.09322144 389.21865364 -59.09322144 389.21865364 -60.45040894 389.31334114 C-66.30542629 389.32541334 -72.20496009 387.88183077 -77.76290894 386.12584114 C-78.09290894 385.46584114 -78.42290894 384.80584114 -78.76290894 384.12584114 C-81.06551395 383.27903335 -81.06551395 383.27903335 -83.82540894 382.62584114 C-84.81411987 382.3693177 -85.80283081 382.11279427 -86.82150269 381.84849739 C-88.62306332 381.40588289 -90.42726563 380.97365833 -92.23556519 380.55943489 C-94.09034434 380.13192681 -95.9289395 379.6352771 -97.76290894 379.12584114 C-98.09290894 378.46584114 -98.42290894 377.80584114 -98.76290894 377.12584114 C-101.07697113 376.39508466 -103.41119763 375.72445856 -105.76290894 375.12584114 C-105.76290894 374.46584114 -105.76290894 373.80584114 -105.76290894 373.12584114 C-107.08290894 373.12584114 -108.40290894 373.12584114 -109.76290894 373.12584114 C-111.76290894 371.12584114 -111.76290894 371.12584114 -112.76290894 369.12584114 C-113.46415894 369.00209114 -114.16540894 368.87834114 -114.88790894 368.75084114 C-118.77876235 367.90500344 -121.39777439 366.26140729 -124.76290894 364.12584114 C-125.09290894 363.46584114 -125.42290894 362.80584114 -125.76290894 362.12584114 C-126.75290894 361.79584114 -127.74290894 361.46584114 -128.76290894 361.12584114 C-132.62789374 359.57984722 -134.87305981 357.08136865 -137.76290894 354.12584114 C-139.02566362 353.01244454 -140.29719387 351.90895405 -141.57540894 350.81334114 C-152.77276632 341.10612638 -152.77276632 341.10612638 -154.76290894 337.12584114 C-155.42290894 337.12584114 -156.08290894 337.12584114 -156.76290894 337.12584114 C-158.29769964 334.82365508 -159.58512467 332.50363271 -160.76290894 330.00084114 C-161.66498851 328.09031249 -161.66498851 328.09031249 -163.13790894 326.75084114 C-164.76290894 325.12584114 -164.76290894 325.12584114 -166.82540894 322.00084114 C-168.45436347 319.07520072 -168.45436347 319.07520072 -170.76290894 318.12584114 C-171.85288979 315.91057642 -172.74401833 313.6424356 -173.66525269 311.35240364 C-174.78895535 309.07300679 -175.97948949 307.89539981 -177.76290894 306.12584114 C-178.93087769 303.93443489 -178.93087769 303.93443489 -179.95040894 301.56334114 C-180.29458862 300.77830208 -180.63876831 299.99326302 -180.99337769 299.18443489 C-181.76290894 297.12584114 -181.76290894 297.12584114 -181.76290894 295.12584114 C-182.42290894 295.12584114 -183.08290894 295.12584114 -183.76290894 295.12584114 C-183.76290894 294.46584114 -183.76290894 293.80584114 -183.76290894 293.12584114 C-184.42290894 292.79584114 -185.08290894 292.46584114 -185.76290894 292.12584114 C-186.35646507 289.47723687 -186.50500162 286.83386792 -186.76290894 284.12584114 C-187.42290894 284.12584114 -188.08290894 284.12584114 -188.76290894 284.12584114 C-188.76290894 282.47584114 -188.76290894 280.82584114 -188.76290894 279.12584114 C-189.42290894 279.12584114 -190.08290894 279.12584114 -190.76290894 279.12584114 C-190.76290894 277.47584114 -190.76290894 275.82584114 -190.76290894 274.12584114 C-191.42290894 274.12584114 -192.08290894 274.12584114 -192.76290894 274.12584114 C-192.89568237 273.4155677 -193.02845581 272.70529427 -193.16525269 271.97349739 C-193.34185425 271.05439583 -193.51845581 270.13529427 -193.70040894 269.18834114 C-193.87443237 268.2718177 -194.04845581 267.35529427 -194.22775269 266.41099739 C-194.54005882 264.1729427 -194.54005882 264.1729427 -195.76290894 263.12584114 C-195.80371676 261.1262575 -195.8054525 259.1253886 -195.76290894 257.12584114 C-196.42290894 257.12584114 -197.08290894 257.12584114 -197.76290894 257.12584114 C-199.39069223 250.97805243 -199.96480983 245.48571918 -199.76290894 239.12584114 C-200.42290894 239.12584114 -201.08290894 239.12584114 -201.76290894 239.12584114 C-201.76290894 234.50584114 -201.76290894 229.88584114 -201.76290894 225.12584114 C-202.42290894 225.12584114 -203.08290894 225.12584114 -203.76290894 225.12584114 C-203.76290894 205.65584114 -203.76290894 186.18584114 -203.76290894 166.12584114 C-203.10290894 166.12584114 -202.44290894 166.12584114 -201.76290894 166.12584114 C-201.76290894 161.83584114 -201.76290894 157.54584114 -201.76290894 153.12584114 C-201.10290894 153.12584114 -200.44290894 153.12584114 -199.76290894 153.12584114 C-199.78031128 152.06043098 -199.78031128 152.06043098 -199.79806519 150.97349739 C-199.80708862 150.05439583 -199.81611206 149.13529427 -199.82540894 148.18834114 C-199.8370105 147.2718177 -199.84861206 146.35529427 -199.86056519 145.41099739 C-199.76290894 143.12584114 -199.76290894 143.12584114 -198.76290894 142.12584114 C-198.39530162 139.7976615 -198.06049313 137.46400264 -197.76290894 135.12584114 C-197.10290894 135.12584114 -196.44290894 135.12584114 -195.76290894 135.12584114 C-195.80415894 134.25959114 -195.84540894 133.39334114 -195.88790894 132.50084114 C-195.75687302 128.96287149 -194.93855244 126.44530515 -193.76290894 123.12584114 C-193.39370703 121.13215083 -193.04965311 119.13305037 -192.76290894 117.12584114 C-192.10290894 117.12584114 -191.44290894 117.12584114 -190.76290894 117.12584114 C-190.76290894 116.13584114 -190.76290894 115.14584114 -190.76290894 114.12584114 C-190.10290894 114.12584114 -189.44290894 114.12584114 -188.76290894 114.12584114 C-188.76290894 112.14584114 -188.76290894 110.16584114 -188.76290894 108.12584114 C-188.10290894 108.12584114 -187.44290894 108.12584114 -186.76290894 108.12584114 C-186.57728394 106.42427864 -186.57728394 106.42427864 -186.38790894 104.68834114 C-186.07853394 102.92490364 -186.07853394 102.92490364 -185.76290894 101.12584114 C-184.77290894 100.63084114 -184.77290894 100.63084114 -183.76290894 100.12584114 C-183.76290894 99.46584114 -183.76290894 98.80584114 -183.76290894 98.12584114 C-183.10290894 98.12584114 -182.44290894 98.12584114 -181.76290894 98.12584114 C-181.56954956 97.52255989 -181.37619019 96.91927864 -181.17697144 96.29771614 C-180.91658081 95.49849739 -180.65619019 94.69927864 -180.38790894 93.87584114 C-180.00505737 92.69248177 -180.00505737 92.69248177 -179.61447144 91.48521614 C-177.44169681 85.46523508 -177.44169681 85.46523508 -174.76290894 84.12584114 C-174.04131469 82.4822098 -173.36939473 80.81533728 -172.76290894 79.12584114 C-172.10290894 79.12584114 -171.44290894 79.12584114 -170.76290894 79.12584114 C-170.76290894 77.80584114 -170.76290894 76.48584114 -170.76290894 75.12584114 C-169.13951089 73.41700109 -167.46971841 71.75137397 -165.76290894 70.12584114 C-164.46770898 67.9596357 -164.46770898 67.9596357 -163.76290894 66.12584114 C-162.77290894 66.12584114 -161.78290894 66.12584114 -160.76290894 66.12584114 C-160.53603394 65.23896614 -160.30915894 64.35209114 -160.07540894 63.43834114 C-158.12609479 58.51864353 -154.64210945 55.83045001 -150.63790894 52.56334114 C-147.79109938 50.33642174 -147.79109938 50.33642174 -146.13790894 47.93834114 C-144.55335002 45.84960439 -143.10576508 45.21917401 -140.76290894 44.12584114 C-140.26790894 43.13584114 -140.26790894 43.13584114 -139.76290894 42.12584114 C-139.10290894 42.12584114 -138.44290894 42.12584114 -137.76290894 42.12584114 C-137.76290894 41.46584114 -137.76290894 40.80584114 -137.76290894 40.12584114 C-136.11290894 39.79584114 -134.46290894 39.46584114 -132.76290894 39.12584114 C-132.76290894 38.46584114 -132.76290894 37.80584114 -132.76290894 37.12584114 C-127.35114423 33.12584114 -127.35114423 33.12584114 -124.76290894 33.12584114 C-124.76290894 32.46584114 -124.76290894 31.80584114 -124.76290894 31.12584114 C-123.44290894 31.12584114 -122.12290894 31.12584114 -120.76290894 31.12584114 C-120.76290894 30.46584114 -120.76290894 29.80584114 -120.76290894 29.12584114 C-120.10290894 29.12584114 -119.44290894 29.12584114 -118.76290894 29.12584114 C-118.43290894 28.46584114 -118.10290894 27.80584114 -117.76290894 27.12584114 C-113.77841206 25.1711823 -111.24016177 24.12584114 -106.76290894 24.12584114 C-106.43290894 23.46584114 -106.10290894 22.80584114 -105.76290894 22.12584114 C-103.76290894 20.12584114 -103.76290894 20.12584114 -101.13790894 20.00084114 C-100.35415894 20.04209114 -99.57040894 20.08334114 -98.76290894 20.12584114 C-98.76290894 19.46584114 -98.76290894 18.80584114 -98.76290894 18.12584114 C-95.79290894 17.79584114 -92.82290894 17.46584114 -89.76290894 17.12584114 C-89.76290894 16.13584114 -89.76290894 15.14584114 -89.76290894 14.12584114 C-85.80290894 13.79584114 -81.84290894 13.46584114 -77.76290894 13.12584114 C-77.76290894 12.46584114 -77.76290894 11.80584114 -77.76290894 11.12584114 C-73.14290894 10.79584114 -68.52290894 10.46584114 -63.76290894 10.12584114 C-63.76290894 9.13584114 -63.76290894 8.14584114 -63.76290894 7.12584114 C-63.19257935 7.07049202 -62.62224976 7.0151429 -62.03463745 6.95811653 C-59.46442141 6.70610371 -56.89493262 6.44731386 -54.32540894 6.18834114 C-52.97866089 6.05782356 -52.97866089 6.05782356 -51.60470581 5.92466927 C-50.7507019 5.83765755 -49.896698 5.75064583 -49.01681519 5.66099739 C-48.22605591 5.58244514 -47.43529663 5.5038929 -46.62057495 5.42296028 C-44.75187546 5.31032616 -44.75187546 5.31032616 -43.76290894 4.12584114 C-33.19057653 2.65443405 -22.40703258 3.02468263 -11.76290894 3.12584114 C-11.76290894 2.46584114 -11.76290894 1.80584114 -11.76290894 1.12584114 C-7.8332966 -0.18402964 -4.09587348 -0.01122323 0 0 Z M0.23709106 14.12584114 C-2.2120666 14.31837997 -4.66474333 14.46770966 -7.11837769 14.59068489 C-8.55915104 14.66912827 -9.99990578 14.74791437 -11.44064331 14.82701302 C-13.70536481 14.94716983 -15.97013587 15.06430862 -18.23532104 15.17540169 C-20.42605348 15.28450049 -22.61587212 15.4054641 -24.80587769 15.52818489 C-26.11580688 15.59513557 -27.42573608 15.66208626 -28.77536011 15.73106575 C-29.76125122 15.86134163 -30.74714233 15.99161751 -31.76290894 16.12584114 C-32.09290894 16.78584114 -32.42290894 17.44584114 -32.76290894 18.12584114 C-34.52877808 18.53648567 -34.52877808 18.53648567 -36.79806519 18.75865364 C-37.6069519 18.8424427 -38.41583862 18.92623177 -39.24923706 19.01255989 C-40.09937378 19.0911927 -40.9495105 19.16982552 -41.82540894 19.25084114 C-43.10641479 19.38039192 -43.10641479 19.38039192 -44.41329956 19.51255989 C-46.52901527 19.72531343 -48.64587417 19.92664067 -50.76290894 20.12584114 C-50.76290894 20.78584114 -50.76290894 21.44584114 -50.76290894 22.12584114 C-52.52634644 22.09490364 -52.52634644 22.09490364 -54.32540894 22.06334114 C-58.2370436 22.05636853 -61.90788838 22.48333771 -65.76290894 23.12584114 C-65.76290894 24.11584114 -65.76290894 25.10584114 -65.76290894 26.12584114 C-69.39290894 26.45584114 -73.02290894 26.78584114 -76.76290894 27.12584114 C-76.76290894 27.78584114 -76.76290894 28.44584114 -76.76290894 29.12584114 C-78.40259644 29.34240364 -78.40259644 29.34240364 -80.07540894 29.56334114 C-83.6941388 30.00872219 -83.6941388 30.00872219 -86.76290894 31.12584114 C-86.76290894 31.78584114 -86.76290894 32.44584114 -86.76290894 33.12584114 C-87.47060425 33.0652552 -88.17829956 33.00466927 -88.90744019 32.94224739 C-92.42232396 33.16823855 -94.41607085 34.3040046 -97.45040894 36.06334114 C-98.40302612 36.60861458 -99.35564331 37.15388802 -100.33712769 37.71568489 C-101.5378894 38.41371223 -101.5378894 38.41371223 -102.76290894 39.12584114 C-103.42290894 39.45584114 -104.08290894 39.78584114 -104.76290894 40.12584114 C-104.76290894 40.78584114 -104.76290894 41.44584114 -104.76290894 42.12584114 C-107.07290894 42.45584114 -109.38290894 42.78584114 -111.76290894 43.12584114 C-111.76290894 44.11584114 -111.76290894 45.10584114 -111.76290894 46.12584114 C-112.50540894 46.24959114 -113.24790894 46.37334114 -114.01290894 46.50084114 C-116.56432378 47.08070815 -118.48966624 47.86292853 -120.76290894 49.12584114 C-120.76290894 49.78584114 -120.76290894 50.44584114 -120.76290894 51.12584114 C-121.42290894 51.12584114 -122.08290894 51.12584114 -122.76290894 51.12584114 C-122.76290894 51.78584114 -122.76290894 52.44584114 -122.76290894 53.12584114 C-123.42290894 53.12584114 -124.08290894 53.12584114 -124.76290894 53.12584114 C-124.76290894 53.78584114 -124.76290894 54.44584114 -124.76290894 55.12584114 C-125.32622925 55.20834114 -125.88954956 55.29084114 -126.46994019 55.37584114 C-131.41646897 56.99378582 -135.06205189 61.60301366 -138.76290894 65.12584114 C-140.05841675 66.34207161 -140.05841675 66.34207161 -141.38009644 67.58287239 C-146.43092039 72.05486179 -146.43092039 72.05486179 -148.76290894 78.12584114 C-149.42290894 78.12584114 -150.08290894 78.12584114 -150.76290894 78.12584114 C-151.25790894 79.61084114 -151.25790894 79.61084114 -151.76290894 81.12584114 C-153.07491298 82.48016789 -154.40922297 83.81317596 -155.76290894 85.12584114 C-158.04025903 87.94094108 -158.04025903 87.94094108 -157.76290894 91.12584114 C-158.75290894 91.12584114 -159.74290894 91.12584114 -160.76290894 91.12584114 C-161.10064331 91.90830208 -161.43837769 92.69076302 -161.78634644 93.49693489 C-162.23236206 94.50884895 -162.67837769 95.52076302 -163.13790894 96.56334114 C-163.57876831 97.57267708 -164.01962769 98.58201302 -164.47384644 99.62193489 C-165.76290894 102.12584114 -165.76290894 102.12584114 -167.76290894 103.12584114 C-169.71756778 107.11033802 -170.76290894 109.6485883 -170.76290894 114.12584114 C-171.42290894 114.12584114 -172.08290894 114.12584114 -172.76290894 114.12584114 C-173.09290894 116.43584114 -173.42290894 118.74584114 -173.76290894 121.12584114 C-174.75290894 121.12584114 -175.74290894 121.12584114 -176.76290894 121.12584114 C-177.09290894 124.09584114 -177.42290894 127.06584114 -177.76290894 130.12584114 C-178.42290894 130.12584114 -179.08290894 130.12584114 -179.76290894 130.12584114 C-179.76290894 132.10584114 -179.76290894 134.08584114 -179.76290894 136.12584114 C-180.42290894 136.12584114 -181.08290894 136.12584114 -181.76290894 136.12584114 C-181.95626831 136.9108802 -182.14962769 137.69591927 -182.34884644 138.50474739 C-182.60923706 139.55533333 -182.86962769 140.60591927 -183.13790894 141.68834114 C-183.54589722 143.3415638 -183.54589722 143.3415638 -183.96212769 145.02818489 C-184.54700162 147.29064844 -185.2229318 149.53012147 -185.95040894 151.75084114 C-187.03259631 156.24608101 -186.92949342 160.52625846 -186.76290894 165.12584114 C-187.75290894 165.12584114 -188.74290894 165.12584114 -189.76290894 165.12584114 C-190.6667634 174.5318984 -190.91973351 183.85231769 -190.89328003 193.29112434 C-190.88792378 195.55706176 -190.89325927 197.82280033 -190.89962769 200.08873177 C-190.90331931 209.14909753 -190.55466393 218.09460394 -189.76290894 227.12584114 C-188.77290894 227.12584114 -187.78290894 227.12584114 -186.76290894 227.12584114 C-186.78031128 228.08297005 -186.78031128 228.08297005 -186.79806519 229.05943489 C-186.80708862 229.88572395 -186.81611206 230.71201302 -186.82540894 231.56334114 C-186.8370105 232.38705208 -186.84861206 233.21076302 -186.86056519 234.05943489 C-186.99558242 236.11748052 -186.99558242 236.11748052 -185.76290894 237.12584114 C-185.41187693 239.16123682 -185.10738925 241.20473603 -184.82540894 243.25084114 C-184.1246339 248.04034869 -183.25984569 252.52810682 -181.76290894 257.12584114 C-181.10290894 257.12584114 -180.44290894 257.12584114 -179.76290894 257.12584114 C-179.76290894 258.77584114 -179.76290894 260.42584114 -179.76290894 262.12584114 C-179.10290894 262.12584114 -178.44290894 262.12584114 -177.76290894 262.12584114 C-177.43290894 265.09584114 -177.10290894 268.06584114 -176.76290894 271.12584114 C-176.10290894 271.12584114 -175.44290894 271.12584114 -174.76290894 271.12584114 C-174.76290894 272.77584114 -174.76290894 274.42584114 -174.76290894 276.12584114 C-174.10290894 276.12584114 -173.44290894 276.12584114 -172.76290894 276.12584114 C-172.76290894 277.11584114 -172.76290894 278.10584114 -172.76290894 279.12584114 C-172.10290894 279.12584114 -171.44290894 279.12584114 -170.76290894 279.12584114 C-170.63915894 279.82709114 -170.51540894 280.52834114 -170.38790894 281.25084114 C-169.72022346 284.32219432 -168.8959451 287.19327694 -167.76290894 290.12584114 C-167.10290894 290.45584114 -166.44290894 290.78584114 -165.76290894 291.12584114 C-164.44977237 293.82804394 -163.32576831 296.58848091 -162.17697144 299.36412239 C-160.70522136 302.23850721 -159.10376027 303.93601247 -156.76290894 306.12584114 C-155.75722651 307.78908515 -154.75626095 309.45520367 -153.76290894 311.12584114 C-153.10290894 311.45584114 -152.44290894 311.78584114 -151.76290894 312.12584114 C-150.77739292 313.83406891 -149.79485251 315.5442455 -148.84103394 317.27037239 C-147.37941634 319.78583745 -145.71811116 321.97511869 -143.76290894 324.12584114 C-143.10290894 324.12584114 -142.44290894 324.12584114 -141.76290894 324.12584114 C-141.55536987 324.65693489 -141.34783081 325.18802864 -141.13400269 325.73521614 C-139.19097809 329.1230539 -136.58262154 331.635021 -133.82540894 334.37584114 C-133.28722534 334.93013802 -132.74904175 335.48443489 -132.19454956 336.05552864 C-130.77715239 337.47467353 -129.27430585 338.80725618 -127.76290894 340.12584114 C-126.77290894 340.12584114 -125.78290894 340.12584114 -124.76290894 340.12584114 C-124.53603394 340.72396614 -124.30915894 341.32209114 -124.07540894 341.93834114 C-122.40681851 344.71932518 -120.63452574 345.69003274 -117.76290894 347.12584114 C-117.10290894 347.12584114 -116.44290894 347.12584114 -115.76290894 347.12584114 C-115.76290894 348.11584114 -115.76290894 349.10584114 -115.76290894 350.12584114 C-115.09904175 350.45197395 -114.43517456 350.77810677 -113.75119019 351.11412239 C-109.31715375 353.30848495 -104.9751106 355.52418717 -100.76290894 358.12584114 C-98.013395 359.66233422 -96.988762 360.12584114 -93.76290894 360.12584114 C-93.76290894 361.11584114 -93.76290894 362.10584114 -93.76290894 363.12584114 C-91.68182209 363.79948775 -89.59794183 364.46450912 -87.51290894 365.12584114 C-86.35275269 365.49709114 -85.19259644 365.86834114 -83.99728394 366.25084114 C-80.67781614 367.29993709 -80.67781614 367.29993709 -76.76290894 367.12584114 C-76.26790894 368.61084114 -76.26790894 368.61084114 -75.76290894 370.12584114 C-73.89394601 370.86343542 -73.89394601 370.86343542 -71.63790894 371.18834114 C-68.66687174 371.74953706 -65.92317712 372.37776069 -63.01290894 373.25084114 C-60.07016243 374.04311905 -57.78341134 374.30890189 -54.76290894 374.12584114 C-54.76290894 374.78584114 -54.76290894 375.44584114 -54.76290894 376.12584114 C-51.80626374 377.60416374 -49.02061157 377.18616897 -45.76290894 377.12584114 C-45.76290894 377.78584114 -45.76290894 378.44584114 -45.76290894 379.12584114 C-44.4751355 379.24701302 -43.18736206 379.36818489 -41.86056519 379.49302864 C-40.18213045 379.66180979 -38.50374759 379.83110727 -36.82540894 380.00084114 C-35.97527222 380.07947395 -35.1251355 380.15810677 -34.24923706 380.23912239 C-33.03590698 380.36480598 -33.03590698 380.36480598 -31.79806519 380.49302864 C-30.67476807 380.60300179 -30.67476807 380.60300179 -29.52877808 380.71519661 C-28.65467285 380.91846565 -28.65467285 380.91846565 -27.76290894 381.12584114 C-27.43290894 381.78584114 -27.10290894 382.44584114 -26.76290894 383.12584114 C-24.15842154 383.58019924 -24.15842154 383.58019924 -21.01290894 383.72349739 C-19.84759644 383.80277473 -18.68228394 383.88205208 -17.48165894 383.96373177 C-16.25447144 384.03785286 -15.02728394 384.11197395 -13.76290894 384.18834114 C-11.34598763 384.34193751 -8.92930051 384.49928092 -6.51290894 384.66099739 C-5.43525269 384.72682014 -4.35759644 384.7926429 -3.24728394 384.86046028 C-0.76290894 385.12584114 -0.76290894 385.12584114 0.23709106 386.12584114 C3.47052602 386.51427582 6.74189317 386.55744259 9.99465942 386.68223763 C11.08762549 386.72441886 12.18059156 386.76660009 13.30667782 386.81005955 C31.22276952 387.41074406 49.15709854 387.25203941 67.08061981 387.22712135 C71.91919515 387.22134454 76.75776516 387.22115385 81.59634399 387.22044563 C95.66409612 387.21523822 109.73184392 387.20127705 123.79959106 387.18834114 C171.04115356 387.15740364 171.04115356 387.15740364 219.23709106 387.12584114 C219.23709106 474.90584114 219.23709106 562.68584114 219.23709106 653.12584114 C245.96709106 653.12584114 272.69709106 653.12584114 300.23709106 653.12584114 C301.42426476 652.15685766 301.42426476 652.15685766 301.36128956 650.39863533 C301.36090984 649.63957439 301.36053012 648.88051345 301.36013889 648.09845066 C301.36212994 647.22561072 301.36412099 646.35277078 301.36617237 645.45348114 C301.36180311 643.99874479 301.36180311 643.99874479 301.35734558 642.51461983 C301.35820001 641.49287731 301.35905443 640.4711348 301.35993475 639.41843039 C301.36159262 635.96663521 301.35606317 632.51488776 301.35061646 629.063097 C301.35033462 626.59992664 301.35049224 624.1367562 301.35105896 621.67358589 C301.35128728 616.35609438 301.34843587 611.03861796 301.34282112 605.72113037 C301.33470831 598.0328532 301.33209113 590.34458196 301.33083313 582.65630097 C301.32864226 570.18382337 301.32198124 557.7113523 301.31253052 545.23887825 C301.30335729 533.12006348 301.29627602 521.00125048 301.29202271 508.88243294 C301.29175998 508.13594677 301.29149726 507.3894606 301.29122657 506.62035363 C301.28992157 502.87560646 301.28865786 499.13085928 301.28741467 495.38611209 C301.27704098 464.29935036 301.25934761 433.21259674 301.23709106 402.12584114 C300.57709106 402.12584114 299.91709106 402.12584114 299.23709106 402.12584114 C299.23709106 397.17584114 299.23709106 392.22584114 299.23709106 387.12584114 C301.6370787 387.12806175 304.03706635 387.13028236 306.50978088 387.13257027 C329.20900749 387.15308534 351.90823287 387.16792406 374.6074667 387.17765331 C386.27527167 387.18278829 397.94306979 387.18977702 409.61087036 387.20128059 C419.79205345 387.2113136 429.97323158 387.21771487 440.15441948 387.21992964 C445.5347655 387.22122225 450.91509734 387.22421465 456.29543877 387.2315712 C483.40625201 387.31752533 483.40625201 387.31752533 510.50686646 386.68223763 C511.51797957 386.64338227 512.52909269 386.60452692 513.5708456 386.56449413 C517.73791665 386.76693566 517.73791665 386.76693566 521.23709106 385.12584114 C523.14913297 384.92159688 525.06774834 384.77822997 526.98709106 384.66099739 C528.73505981 384.54401497 528.73505981 384.54401497 530.51834106 384.42466927 C532.99726354 384.2671327 535.47643627 384.11348573 537.95584106 383.96373177 C539.70380981 383.84481575 539.70380981 383.84481575 541.48709106 383.72349739 C543.10357544 383.62307137 543.10357544 383.62307137 544.75271606 383.52061653 C545.57255981 383.39034065 546.39240356 383.26006477 547.23709106 383.12584114 C547.56709106 382.46584114 547.89709106 381.80584114 548.23709106 381.12584114 C550.00296021 380.71519661 550.00296021 380.71519661 552.27224731 380.49302864 C553.08113403 380.40923958 553.89002075 380.32545052 554.72341919 380.23912239 C555.57355591 380.16048958 556.42369263 380.08185677 557.29959106 380.00084114 C558.15359497 379.91447395 559.00759888 379.82810677 559.88748169 379.73912239 C562.00319739 379.52636886 564.1200563 379.32504161 566.23709106 379.12584114 C566.23709106 378.46584114 566.23709106 377.80584114 566.23709106 377.12584114 C567.35084106 377.14646614 568.46459106 377.16709114 569.61209106 377.18834114 C573.06925027 377.38964832 573.06925027 377.38964832 575.23709106 376.12584114 C575.23709106 375.46584114 575.23709106 374.80584114 575.23709106 374.12584114 C575.97314575 374.07685677 576.70920044 374.02787239 577.46755981 373.97740364 C578.93129028 373.8652552 578.93129028 373.8652552 580.42459106 373.75084114 C581.38752075 373.68123177 582.35045044 373.61162239 583.34255981 373.53990364 C586.27320991 373.12067434 588.53801277 372.31343559 591.23709106 371.12584114 C593.23329273 370.44788586 595.23247807 369.77850584 597.23709106 369.12584114 C597.23709106 368.46584114 597.23709106 367.80584114 597.23709106 367.12584114 C597.79396606 367.08845833 598.35084106 367.05107552 598.92459106 367.01255989 C604.5233453 366.53023478 609.0537447 365.29342235 614.23709106 363.12584114 C614.23709106 362.13584114 614.23709106 361.14584114 614.23709106 360.12584114 C614.75271606 360.02271614 615.26834106 359.91959114 615.79959106 359.81334114 C621.73574936 358.13904008 626.98524325 355.24134851 632.31912231 352.21177864 C633.60662602 351.48280506 634.9137413 350.78751603 636.23709106 350.12584114 C636.23709106 349.13584114 636.23709106 348.14584114 636.23709106 347.12584114 C637.62927856 346.72365364 637.62927856 346.72365364 639.04959106 346.31334114 C641.99490131 345.2160687 643.38726983 344.59226945 645.23709106 342.12584114 C645.23709106 341.46584114 645.23709106 340.80584114 645.23709106 340.12584114 C645.83038208 340.02005745 646.4236731 339.91427376 647.03494263 339.8052845 C649.55216562 339.02862911 650.62649945 338.11021612 652.47146606 336.25474739 C653.33191528 335.39333138 653.33191528 335.39333138 654.20974731 334.51451302 C655.08953247 333.61055794 655.08953247 333.61055794 655.98709106 332.68834114 C656.58908325 332.08957161 657.19107544 331.49080208 657.81130981 330.87388802 C661.10435373 328.00010807 661.10435373 328.00010807 662.23709106 324.12584114 C662.89709106 324.12584114 663.55709106 324.12584114 664.23709106 324.12584114 C666.01915128 322.21549101 666.01915128 322.21549101 667.79959106 319.81334114 C668.41963013 319.01283333 669.03966919 318.21232552 669.67849731 317.38755989 C671.39138899 315.12615911 671.39138899 315.12615911 672.23709106 312.12584114 C673.5704244 310.79250781 674.90375773 309.45917447 676.23709106 308.12584114 C679.42952177 304.03786323 679.42952177 304.03786323 680.23709106 299.12584114 C680.89709106 299.12584114 681.55709106 299.12584114 682.23709106 299.12584114 C682.50263794 298.5599427 682.76818481 297.99404427 683.04177856 297.41099739 C683.39498169 296.67752083 683.74818481 295.94404427 684.11209106 295.18834114 C684.63416138 294.09199348 684.63416138 294.09199348 685.16677856 292.97349739 C686.23709106 291.12584114 686.23709106 291.12584114 688.23709106 290.12584114 C689.13483762 287.9850609 689.95752502 285.81242882 690.73709106 283.62584114 C693.01486884 277.23695225 693.01486884 277.23695225 695.23709106 276.12584114 C695.23709106 274.47584114 695.23709106 272.82584114 695.23709106 271.12584114 C695.89709106 271.12584114 696.55709106 271.12584114 697.23709106 271.12584114 C697.56709106 268.15584114 697.89709106 265.18584114 698.23709106 262.12584114 C698.89709106 262.12584114 699.55709106 262.12584114 700.23709106 262.12584114 C700.23709106 260.47584114 700.23709106 258.82584114 700.23709106 257.12584114 C700.89709106 257.12584114 701.55709106 257.12584114 702.23709106 257.12584114 C704.35972063 248.56123887 704.35972063 248.56123887 705.86209106 239.87584114 C706.23709106 237.12584114 706.23709106 237.12584114 707.23709106 236.12584114 C707.3088907 234.60656076 707.32101114 233.08416632 707.29959106 231.56334114 C707.28605591 230.32390755 707.28605591 230.32390755 707.27224731 229.05943489 C707.26064575 228.42134895 707.24904419 227.78326302 707.23709106 227.12584114 C707.89709106 227.12584114 708.55709106 227.12584114 709.23709106 227.12584114 C709.297677 226.28279427 709.35826294 225.43974739 709.42068481 224.57115364 C709.50447388 223.47545052 709.58826294 222.37974739 709.67459106 221.25084114 C709.755802 220.16029427 709.83701294 219.06974739 709.92068481 217.94615364 C710.23709106 215.12584114 710.23709106 215.12584114 711.23709106 213.12584114 C711.34824472 210.65150468 711.40120494 208.20629691 711.40505981 205.73130989 C711.40838821 204.98810997 711.41171661 204.24491005 711.41514587 203.47918892 C711.42021775 201.89795233 711.42255412 200.316705 711.4223938 198.73546028 C711.42454798 196.36083857 711.44260893 193.98670668 711.46170044 191.61216927 C711.49409277 182.56901491 710.97751988 174.02914527 709.23709106 165.12584114 C708.57709106 165.12584114 707.91709106 165.12584114 707.23709106 165.12584114 C707.26029419 164.56896614 707.28349731 164.01209114 707.30740356 163.43834114 C707.43541716 158.02519475 706.7204808 153.33119058 705.23709106 148.12584114 C704.68977245 145.9605953 704.1483738 143.79384669 703.61209106 141.62584114 C703.35170044 140.58427864 703.09130981 139.54271614 702.82302856 138.46959114 C702.62966919 137.69615364 702.43630981 136.92271614 702.23709106 136.12584114 C701.57709106 136.12584114 700.91709106 136.12584114 700.23709106 136.12584114 C700.23709106 134.14584114 700.23709106 132.16584114 700.23709106 130.12584114 C699.57709106 130.12584114 698.91709106 130.12584114 698.23709106 130.12584114 C697.90709106 127.15584114 697.57709106 124.18584114 697.23709106 121.12584114 C696.24709106 121.12584114 695.25709106 121.12584114 694.23709106 121.12584114 C694.11334106 120.16677864 694.11334106 120.16677864 693.98709106 119.18834114 C691.79503937 110.2374634 686.64585667 102.13840111 682.23709106 94.12584114 C681.57709106 94.12584114 680.91709106 94.12584114 680.23709106 94.12584114 C680.23709106 93.13584114 680.23709106 92.14584114 680.23709106 91.12584114 C679.57709106 91.12584114 678.91709106 91.12584114 678.23709106 91.12584114 C678.05146606 90.25959114 678.05146606 90.25959114 677.86209106 89.37584114 C676.72923994 85.2975771 675.83126878 83.52195962 672.23709106 81.12584114 C671.90709106 80.13584114 671.57709106 79.14584114 671.23709106 78.12584114 C670.57709106 78.12584114 669.91709106 78.12584114 669.23709106 78.12584114 C669.23709106 77.46584114 669.23709106 76.80584114 669.23709106 76.12584114 C668.57709106 76.12584114 667.91709106 76.12584114 667.23709106 76.12584114 C667.23709106 75.46584114 667.23709106 74.80584114 667.23709106 74.12584114 C666.57709106 74.12584114 665.91709106 74.12584114 665.23709106 74.12584114 C665.12534546 73.52586311 665.01359985 72.92588509 664.89846802 72.30772591 C663.821639 68.75526339 661.03446255 66.57461064 658.42459106 64.06334114 C657.89027466 63.53418098 657.35595825 63.00502083 656.80545044 62.45982552 C651.83832918 57.08003082 651.83832918 57.08003082 645.23709106 55.12584114 C645.23709106 54.46584114 645.23709106 53.80584114 645.23709106 53.12584114 C644.57709106 53.12584114 643.91709106 53.12584114 643.23709106 53.12584114 C643.23709106 52.46584114 643.23709106 51.80584114 643.23709106 51.12584114 C641.55501174 49.75764633 641.55501174 49.75764633 639.42459106 48.50084114 C638.71689575 48.05482552 638.00920044 47.60880989 637.28005981 47.14927864 C635.17087899 45.9018925 635.17087899 45.9018925 632.23709106 46.12584114 C632.23709106 45.13584114 632.23709106 44.14584114 632.23709106 43.12584114 C629.92709106 42.79584114 627.61709106 42.46584114 625.23709106 42.12584114 C625.23709106 41.46584114 625.23709106 40.80584114 625.23709106 40.12584114 C624.41209106 39.71334114 623.58709106 39.30084114 622.73709106 38.87584114 C620.88126718 37.9479292 619.02792582 37.01404592 617.19802856 36.03599739 C616.50966919 35.67377083 615.82130981 35.31154427 615.11209106 34.93834114 C614.14916138 34.42207161 614.14916138 34.42207161 613.16677856 33.89537239 C610.96409222 32.87889587 610.96409222 32.87889587 607.23709106 33.12584114 C607.23709106 32.46584114 607.23709106 31.80584114 607.23709106 31.12584114 C603.72932322 29.52229013 601.09354228 28.9054725 597.23709106 29.12584114 C597.23709106 28.46584114 597.23709106 27.80584114 597.23709106 27.12584114 C591.79209106 26.63084114 591.79209106 26.63084114 586.23709106 26.12584114 C586.23709106 25.13584114 586.23709106 24.14584114 586.23709106 23.12584114 C581.1562231 22.27902981 576.38880729 22.03546015 571.23709106 22.12584114 C571.23709106 21.46584114 571.23709106 20.80584114 571.23709106 20.12584114 C569.96091919 20.00466927 568.68474731 19.88349739 567.36990356 19.75865364 C565.7005858 19.58984623 564.03131742 19.42055004 562.36209106 19.25084114 C561.52033325 19.17220833 560.67857544 19.09357552 559.81130981 19.01255989 C559.00564575 18.92877083 558.19998169 18.84498177 557.36990356 18.75865364 C556.25446167 18.6486805 556.25446167 18.6486805 555.1164856 18.53648567 C553.23709106 18.12584114 553.23709106 18.12584114 551.23709106 16.12584114 C548.09970121 15.67477365 548.09970121 15.67477365 544.40115356 15.52818489 C543.72539276 15.48899437 543.04963196 15.44980385 542.35339355 15.40942574 C540.19001229 15.28524821 538.02622204 15.1736138 535.86209106 15.06334114 C533.70526738 14.94760796 531.54865424 14.82918121 529.39221191 14.70654488 C527.43016779 14.59584804 525.46766709 14.49333449 523.50515747 14.391222 C520.23709106 14.12584114 520.23709106 14.12584114 518.26878381 13.61708916 C514.820437 12.78330485 511.28912805 12.98979675 507.75997925 13 C506.89211493 12.99854656 506.02425061 12.99709312 505.13008738 12.99559563 C502.20187073 12.99192617 499.27370583 12.99542646 496.3454895 12.9988575 C494.23298999 12.99770606 492.12049068 12.99611838 490.00799179 12.99413025 C484.18714046 12.98994013 478.36630543 12.99202622 472.54545403 12.99511647 C466.27408612 12.99737162 460.0027211 12.99389038 453.73135376 12.99113655 C442.15055206 12.98693886 430.569757 12.98731394 418.98895514 12.99004802 C408.29135243 12.99256126 397.59375163 12.99322136 386.89614868 12.99202538 C386.18719459 12.99194899 385.47824049 12.99187261 384.74780294 12.99179391 C381.87009614 12.99148258 378.99238934 12.99116418 376.11468254 12.99083414 C349.10672128 12.98777354 322.09876335 12.99055115 295.09080261 12.99593104 C271.08357406 13.00067682 247.07635082 13.0002522 223.06912231 12.99547005 C196.11129296 12.99011813 169.15346656 12.98799057 142.19563675 12.99108231 C139.32310232 12.99140304 136.45056788 12.99171588 133.57803345 12.99202538 C132.51705742 12.99214399 132.51705742 12.99214399 131.43464753 12.992265 C120.7424518 12.9934036 110.05025818 12.99207012 99.35806274 12.98954582 C87.2034093 12.98669061 75.04876371 12.98748932 62.89411068 12.99282657 C56.68816713 12.99546151 50.48223437 12.99647211 44.27629089 12.99317741 C38.60160339 12.99021023 32.92693674 12.99181439 27.25225115 12.99715497 C25.19309399 12.99827733 23.13393509 12.99769192 21.07477903 12.99527918 C18.28789485 12.99226279 15.5010832 12.99533272 12.71420288 13 C11.90442946 12.99765883 11.09465604 12.99531767 10.26034403 12.99290556 C6.73139126 13.00481432 3.63789515 13.24982395 0.23709106 14.12584114 Z " fill="#FBFBFB" transform="translate(239.76290893554688,156.87415885925293)"/>
<path d="" fill="#FFFFFF" transform="translate(0,0)"/>
<path d="" fill="#FFFFFF" transform="translate(0,0)"/>
<path d="" fill="#FFFFFF" transform="translate(0,0)"/>
<path d="" fill="#FFFFFF" transform="translate(0,0)"/>
<path d="" fill="#FFFFFF" transform="translate(0,0)"/>
<path d="" fill="#FFFFFF" transform="translate(0,0)"/>
<path d="" fill="#FFFFFF" transform="translate(0,0)"/>
<path d="" fill="#FFFFFF" transform="translate(0,0)"/>
<path d="" fill="#FFFFFF" transform="translate(0,0)"/>
<path d="" fill="#FFFFFF" transform="translate(0,0)"/>
<path d="" fill="#FFFFFF" transform="translate(0,0)"/>
<path d="" fill="#FFFFFF" transform="translate(0,0)"/>
<path d="" fill="#FFFFFF" transform="translate(0,0)"/>
<path d="" fill="#FFFFFF" transform="translate(0,0)"/>
<path d="" fill="#FFFFFF" transform="translate(0,0)"/>
<path d="" fill="#FFFFFF" transform="translate(0,0)"/>
<path d="" fill="#FFFFFF" transform="translate(0,0)"/>
<path d="" fill="#FFFFFF" transform="translate(0,0)"/>
<path d="" fill="#FFFFFF" transform="translate(0,0)"/>
<path d="" fill="#FFFFFF" transform="translate(0,0)"/>
<path d="" fill="#FFFFFF" transform="translate(0,0)"/>
<path d="" fill="#FFFFFF" transform="translate(0,0)"/>
<path d="" fill="#FFFFFF" transform="translate(0,0)"/>
<path d="" fill="#FFFFFF" transform="translate(0,0)"/>
<path d="" fill="#FFFFFF" transform="translate(0,0)"/>
<path d="" fill="#FFFFFF" transform="translate(0,0)"/>
<path d="" fill="#FFFFFF" transform="translate(0,0)"/>
<path d="" fill="#FFFFFF" transform="translate(0,0)"/>
<path d="" fill="#FFFFFF" transform="translate(0,0)"/>
<path d="" fill="#FFFFFF" transform="translate(0,0)"/>
<path d="" fill="#FFFFFF" transform="translate(0,0)"/>
<path d="" fill="#FFFFFF" transform="translate(0,0)"/>
<path d="" fill="#FFFFFF" transform="translate(0,0)"/>
<path d="" fill="#FFFFFF" transform="translate(0,0)"/>
<path d="" fill="#FFFFFF" transform="translate(0,0)"/>
<path d="" fill="#FFFFFF" transform="translate(0,0)"/>
<path d="" fill="#FFFFFF" transform="translate(0,0)"/>
<path d="" fill="#FFFFFF" transform="translate(0,0)"/>
<path d="" fill="#FFFFFF" transform="translate(0,0)"/>
<path d="" fill="#FFFFFF" transform="translate(0,0)"/>
<path d="" fill="#FFFFFF" transform="translate(0,0)"/>
<path d="" fill="#FFFFFF" transform="translate(0,0)"/>
<path d="" fill="#FFFFFF" transform="translate(0,0)"/>
<path d="" fill="#FFFFFF" transform="translate(0,0)"/>
<path d="" fill="#FFFFFF" transform="translate(0,0)"/>
<path d="" fill="#FFFFFF" transform="translate(0,0)"/>
<path d="" fill="#FFFFFF" transform="translate(0,0)"/>
<path d="" fill="#FFFFFF" transform="translate(0,0)"/>
<path d="" fill="#FFFFFF" transform="translate(0,0)"/>
<path d="" fill="#FFFFFF" transform="translate(0,0)"/>
<path d="" fill="#FFFFFF" transform="translate(0,0)"/>
<path d="" fill="#FFFFFF" transform="translate(0,0)"/>
<path d="" fill="#FFFFFF" transform="translate(0,0)"/>
<path d="" fill="#FFFFFF" transform="translate(0,0)"/>
<path d="" fill="#FFFFFF" transform="translate(0,0)"/>
<path d="" fill="#FFFFFF" transform="translate(0,0)"/>
<path d="" fill="#FFFFFF" transform="translate(0,0)"/>
<path d="" fill="#FFFFFF" transform="translate(0,0)"/>
<path d="" fill="#FFFFFF" transform="translate(0,0)"/>
<path d="" fill="#FFFFFF" transform="translate(0,0)"/>
<path d="" fill="#FFFFFF" transform="translate(0,0)"/>
<path d="" fill="#FFFFFF" transform="translate(0,0)"/>
<path d="" fill="#FFFFFF" transform="translate(0,0)"/>
<path d="" fill="#FFFFFF" transform="translate(0,0)"/>
<path d="" fill="#FFFFFF" transform="translate(0,0)"/>
<path d="" fill="#FFFFFF" transform="translate(0,0)"/>
<path d="" fill="#FFFFFF" transform="translate(0,0)"/>
<path d="" fill="#FFFFFF" transform="translate(0,0)"/>
<path d="" fill="#FFFFFF" transform="translate(0,0)"/>
<path d="" fill="#FFFFFF" transform="translate(0,0)"/>
<path d="" fill="#FFFFFF" transform="translate(0,0)"/>
<path d="" fill="#FFFFFF" transform="translate(0,0)"/>
<path d="" fill="#FFFFFF" transform="translate(0,0)"/>
<path d="" fill="#FFFFFF" transform="translate(0,0)"/>
<path d="" fill="#FFFFFF" transform="translate(0,0)"/>
<path d="" fill="#FFFFFF" transform="translate(0,0)"/>
<path d="" fill="#FFFFFF" transform="translate(0,0)"/>
<path d="" fill="#FFFFFF" transform="translate(0,0)"/>
<path d="" fill="#FFFFFF" transform="translate(0,0)"/>
<path d="" fill="#FFFFFF" transform="translate(0,0)"/>
<path d="" fill="#FFFFFF" transform="translate(0,0)"/>
<path d="" fill="#FFFFFF" transform="translate(0,0)"/>
<path d="" fill="#FFFFFF" transform="translate(0,0)"/>
<path d="" fill="#FFFFFF" transform="translate(0,0)"/>
<path d="" fill="#FFFFFF" transform="translate(0,0)"/>
<path d="" fill="#FFFFFF" transform="translate(0,0)"/>
<path d="" fill="#FFFFFF" transform="translate(0,0)"/>
<path d="" fill="#FFFFFF" transform="translate(0,0)"/>
<path d="" fill="#FFFFFF" transform="translate(0,0)"/>
<path d="" fill="#FFFFFF" transform="translate(0,0)"/>
<path d="" fill="#FFFFFF" transform="translate(0,0)"/>
<path d="" fill="#FFFFFF" transform="translate(0,0)"/>
<path d="" fill="#FFFFFF" transform="translate(0,0)"/>
<path d="" fill="#FFFFFF" transform="translate(0,0)"/>
<path d="" fill="#FFFFFF" transform="translate(0,0)"/>
<path d="" fill="#FFFFFF" transform="translate(0,0)"/>
<path d="" fill="#FFFFFF" transform="translate(0,0)"/>
<path d="" fill="#FFFFFF" transform="translate(0,0)"/>
<path d="" fill="#FFFFFF" transform="translate(0,0)"/>
<path d="" fill="#FFFFFF" transform="translate(0,0)"/>
<path d="" fill="#FFFFFF" transform="translate(0,0)"/>
<path d="" fill="#FFFFFF" transform="translate(0,0)"/>
<path d="" fill="#FFFFFF" transform="translate(0,0)"/>
<path d="" fill="#FFFFFF" transform="translate(0,0)"/>
<path d="" fill="#FFFFFF" transform="translate(0,0)"/>
<path d="" fill="#FFFFFF" transform="translate(0,0)"/>
<path d="" fill="#FFFFFF" transform="translate(0,0)"/>
<path d="" fill="#FFFFFF" transform="translate(0,0)"/>
<path d="" fill="#FFFFFF" transform="translate(0,0)"/>
<path d="" fill="#FFFFFF" transform="translate(0,0)"/>
<path d="" fill="#FFFFFF" transform="translate(0,0)"/>
<path d="" fill="#FFFFFF" transform="translate(0,0)"/>
<path d="" fill="#FFFFFF" transform="translate(0,0)"/>
<path d="" fill="#FFFFFF" transform="translate(0,0)"/>
<path d="" fill="#FFFFFF" transform="translate(0,0)"/>
<path d="" fill="#FFFFFF" transform="translate(0,0)"/>
<path d="" fill="#FFFFFF" transform="translate(0,0)"/>
<path d="" fill="#FFFFFF" transform="translate(0,0)"/>
<path d="" fill="#FFFFFF" transform="translate(0,0)"/>
<path d="" fill="#FFFFFF" transform="translate(0,0)"/>
<path d="" fill="#FFFFFF" transform="translate(0,0)"/>
<path d="" fill="#FFFFFF" transform="translate(0,0)"/>
<path d="" fill="#FFFFFF" transform="translate(0,0)"/>
<path d="" fill="#FFFFFF" transform="translate(0,0)"/>
<path d="" fill="#FFFFFF" transform="translate(0,0)"/>
<path d="" fill="#FFFFFF" transform="translate(0,0)"/>
<path d="" fill="#FFFFFF" transform="translate(0,0)"/>
<path d="" fill="#FFFFFF" transform="translate(0,0)"/>
<path d="" fill="#FFFFFF" transform="translate(0,0)"/>
<path d="" fill="#FFFFFF" transform="translate(0,0)"/>
<path d="" fill="#FFFFFF" transform="translate(0,0)"/>
<path d="" fill="#FFFFFF" transform="translate(0,0)"/>
<path d="" fill="#FFFFFF" transform="translate(0,0)"/>
<path d="" fill="#FFFFFF" transform="translate(0,0)"/>
<path d="" fill="#FFFFFF" transform="translate(0,0)"/>
<path d="" fill="#FFFFFF" transform="translate(0,0)"/>
<path d="" fill="#FFFFFF" transform="translate(0,0)"/>
<path d="" fill="#FFFFFF" transform="translate(0,0)"/>
<path d="" fill="#FFFFFF" transform="translate(0,0)"/>
<path d="" fill="#FFFFFF" transform="translate(0,0)"/>
<path d="" fill="#FFFFFF" transform="translate(0,0)"/>
<path d="" fill="#FFFFFF" transform="translate(0,0)"/>
<path d="" fill="#FFFFFF" transform="translate(0,0)"/>
<path d="" fill="#FFFFFF" transform="translate(0,0)"/>
<path d="" fill="#FFFFFF" transform="translate(0,0)"/>
<path d="" fill="#FFFFFF" transform="translate(0,0)"/>
<path d="" fill="#FFFFFF" transform="translate(0,0)"/>
<path d="" fill="#FFFFFF" transform="translate(0,0)"/>
<path d="" fill="#FFFFFF" transform="translate(0,0)"/>
<path d="" fill="#FFFFFF" transform="translate(0,0)"/>
<path d="" fill="#FFFFFF" transform="translate(0,0)"/>
<path d="" fill="#FFFFFF" transform="translate(0,0)"/>
<path d="" fill="#FFFFFF" transform="translate(0,0)"/>
<path d="" fill="#FFFFFF" transform="translate(0,0)"/>
<path d="" fill="#FFFFFF" transform="translate(0,0)"/>
<path d="" fill="#FFFFFF" transform="translate(0,0)"/>
<path d="" fill="#FFFFFF" transform="translate(0,0)"/>
<path d="" fill="#FFFFFF" transform="translate(0,0)"/>
<path d="" fill="#FFFFFF" transform="translate(0,0)"/>
<path d="" fill="#FFFFFF" transform="translate(0,0)"/>
<path d="" fill="#FFFFFF" transform="translate(0,0)"/>
<path d="" fill="#FFFFFF" transform="translate(0,0)"/>
<path d="" fill="#FFFFFF" transform="translate(0,0)"/>
<path d="" fill="#FFFFFF" transform="translate(0,0)"/>
<path d="" fill="#FFFFFF" transform="translate(0,0)"/>
<path d="" fill="#FFFFFF" transform="translate(0,0)"/>
<path d="" fill="#FFFFFF" transform="translate(0,0)"/>
<path d="" fill="#FFFFFF" transform="translate(0,0)"/>
<path d="" fill="#FFFFFF" transform="translate(0,0)"/>
<path d="" fill="#FFFFFF" transform="translate(0,0)"/>
<path d="" fill="#FFFFFF" transform="translate(0,0)"/>
<path d="" fill="#FFFFFF" transform="translate(0,0)"/>
<path d="" fill="#FFFFFF" transform="translate(0,0)"/>
<path d="" fill="#FFFFFF" transform="translate(0,0)"/>
<path d="" fill="#FFFFFF" transform="translate(0,0)"/>
<path d="" fill="#FFFFFF" transform="translate(0,0)"/>
</svg>
